<svg width="60" height="60" viewBox="0 0 60 60" fill="none" xmlns="http://www.w3.org/2000/svg">
<path d="M39.3496 20.1217L37.4897 9.66542L29.796 4.57524L21.6847 6.01141C21.513 6.04174 21.349 6.10562 21.202 6.19939C21.0551 6.29317 20.928 6.415 20.8282 6.55791C20.7283 6.70082 20.6576 6.86202 20.6201 7.03228C20.5826 7.20254 20.5791 7.37852 20.6096 7.55016L22.807 19.9566L22.1022 20.0858L19.8987 7.67941C19.8519 7.4149 19.8577 7.14376 19.9156 6.88146C19.9736 6.61917 20.0827 6.37087 20.2366 6.15073C20.3906 5.93059 20.5863 5.74292 20.8128 5.59845C21.0393 5.45398 21.292 5.35552 21.5565 5.30871L29.9498 3.81818L38.1442 9.24073L40.0543 19.9956L39.3496 20.1217Z" fill="#172B4D"/>
<rect x="15.2727" y="20.1818" width="31.3636" height="4.36364" fill="#CDD1FE"/>
<rect x="13.9092" y="28.0909" width="5.45455" height="2.45454" fill="#CDD1FE"/>
<rect x="42.2727" y="28.0909" width="5.45454" height="2.45454" fill="#CDD1FE"/>
<path d="M37.5615 9.59566C35.3898 10.006 33.6869 10.2214 32.7821 10.2676C32.4744 10.283 31.9389 10.2932 31.4957 9.98342C31.2683 9.82479 31.0825 9.61365 30.9541 9.36793C30.8903 9.24505 30.8417 9.11483 30.8095 8.98016C30.7982 8.93605 30.792 8.90117 30.7889 8.87758V8.86732C30.7828 8.83347 30.4689 7.5522 29.7087 4.45624" fill="#0517F8"/>
<path d="M32.5657 10.6328C32.1141 10.6515 31.6679 10.5285 31.2896 10.2809C31.0156 10.0887 30.7915 9.83365 30.6361 9.53718C30.5585 9.3884 30.4996 9.23059 30.4607 9.06735C30.4505 9.02529 30.4423 8.98939 30.4382 8.96477V8.94425C30.4187 8.85911 30.2135 8.01485 29.3621 4.54753L30.0596 4.37622C30.9531 8.01587 31.107 8.65087 31.1368 8.77704L31.145 8.81602C31.145 8.83449 31.1542 8.86321 31.1624 8.89809C31.2402 9.2199 31.4333 9.50203 31.7051 9.69106C32.0272 9.91674 32.4232 9.92905 32.7678 9.91059C33.7937 9.85827 35.5653 9.60899 37.499 9.24482L37.6313 9.95059C35.6679 10.3209 33.8634 10.5743 32.8099 10.6287C32.7258 10.6297 32.6478 10.6328 32.5657 10.6328ZM30.4423 8.974C30.4419 8.9781 30.4419 8.98222 30.4423 8.98631V8.974Z" fill="#172B4D"/>
<path d="M45.8112 25.0714H15.9072C15.5599 25.0709 15.227 24.9327 14.9815 24.6871C14.7359 24.4416 14.5977 24.1087 14.5972 23.7614V20.8891C14.5977 20.5418 14.7359 20.2089 14.9815 19.9634C15.227 19.7178 15.5599 19.5796 15.9072 19.5791H45.8112C46.1585 19.5796 46.4914 19.7178 46.7369 19.9634C46.9825 20.2089 47.1207 20.5418 47.1212 20.8891V23.7614C47.1207 24.1087 46.9825 24.4416 46.7369 24.6871C46.4914 24.9327 46.1585 25.0709 45.8112 25.0714ZM15.9072 20.3013C15.7503 20.3016 15.5999 20.364 15.4889 20.475C15.378 20.5859 15.3155 20.7363 15.3153 20.8932V23.7655C15.3155 23.9224 15.378 24.0728 15.4889 24.1838C15.5999 24.2947 15.7503 24.3572 15.9072 24.3574H45.8112C45.9681 24.3572 46.1185 24.2947 46.2295 24.1838C46.3404 24.0728 46.4028 23.9224 46.4031 23.7655V20.8932C46.4028 20.7363 46.3404 20.5859 46.2295 20.475C46.1185 20.364 45.9681 20.3016 45.8112 20.3013H15.9072Z" fill="#172B4D"/>
<path d="M43.6384 56.1818H17.9577L16.896 30.615L17.6131 30.5852L18.6471 55.4637H42.9522L44.058 30.5124L44.7751 30.5442L43.6384 56.1818Z" fill="#172B4D"/>
<path d="M16.7914 28.1017L16.6355 24.3533H45.049L44.891 27.9262L44.174 27.8944L44.2991 25.0714H17.3844L17.5085 28.0719L16.7914 28.1017Z" fill="#172B4D"/>
<path d="M30.8596 52.6693C30.3529 52.6688 29.8671 52.4673 29.5088 52.109C29.1506 51.7507 28.949 51.2649 28.9485 50.7582V30.3811C28.9601 29.882 29.1664 29.4073 29.5235 29.0584C29.8805 28.7095 30.3599 28.5142 30.8591 28.5142C31.3583 28.5142 31.8377 28.7095 32.1947 29.0584C32.5518 29.4073 32.7581 29.882 32.7697 30.3811V50.7582C32.7692 51.2647 32.5678 51.7504 32.2097 52.1086C31.8517 52.4669 31.3661 52.6685 30.8596 52.6693ZM30.8596 29.1891C30.5435 29.1893 30.2403 29.315 30.0167 29.5384C29.793 29.7619 29.6671 30.0649 29.6666 30.3811V50.7582C29.6619 50.9178 29.6893 51.0766 29.7471 51.2254C29.8049 51.3742 29.892 51.5098 30.0032 51.6243C30.1144 51.7389 30.2475 51.8299 30.3945 51.892C30.5415 51.9542 30.6995 51.9862 30.8591 51.9862C31.0187 51.9862 31.1767 51.9542 31.3237 51.892C31.4707 51.8299 31.6038 51.7389 31.715 51.6243C31.8262 51.5098 31.9133 51.3742 31.9711 51.2254C32.0289 51.0766 32.0563 50.9178 32.0516 50.7582V30.3811C32.0511 30.0651 31.9253 29.7622 31.7019 29.5388C31.4785 29.3154 31.1756 29.1896 30.8596 29.1891Z" fill="#172B4D"/>
<path d="M37.7973 52.6694C37.2908 52.6686 36.8053 52.4669 36.4472 52.1087C36.0891 51.7504 35.8877 51.2648 35.8872 50.7583V30.3811C35.8872 29.8745 36.0884 29.3887 36.4467 29.0305C36.8049 28.6722 37.2907 28.471 37.7973 28.471C38.3039 28.471 38.7897 28.6722 39.1479 29.0305C39.5062 29.3887 39.7074 29.8745 39.7074 30.3811V50.7583C39.7069 51.2648 39.5055 51.7504 39.1474 52.1087C38.7893 52.4669 38.3038 52.6686 37.7973 52.6694ZM37.7973 29.1891C37.4813 29.1896 37.1784 29.3154 36.955 29.5388C36.7316 29.7623 36.6058 30.0651 36.6053 30.3811V50.7583C36.6053 51.0744 36.7309 51.3776 36.9544 51.6011C37.178 51.8247 37.4812 51.9503 37.7973 51.9503C38.1134 51.9503 38.4166 51.8247 38.6402 51.6011C38.8637 51.3776 38.9893 51.0744 38.9893 50.7583V30.3811C38.9888 30.0651 38.863 29.7623 38.6396 29.5388C38.4162 29.3154 38.1133 29.1896 37.7973 29.1891Z" fill="#172B4D"/>
<path d="M23.7219 52.6694C23.2154 52.6686 22.7298 52.4669 22.3718 52.1087C22.0137 51.7504 21.8123 51.2648 21.8118 50.7583V30.3811C21.8118 29.8745 22.013 29.3887 22.3712 29.0305C22.7294 28.6722 23.2153 28.471 23.7219 28.471C24.2285 28.471 24.7143 28.6722 25.0725 29.0305C25.4307 29.3887 25.632 29.8745 25.632 30.3811V50.7583C25.6314 51.2648 25.43 51.7504 25.072 52.1087C24.7139 52.4669 24.2284 52.6686 23.7219 52.6694ZM23.7219 29.1891C23.4059 29.1896 23.103 29.3154 22.8796 29.5388C22.6562 29.7623 22.5304 30.0651 22.5299 30.3811V50.7583C22.5299 51.0744 22.6554 51.3776 22.879 51.6011C23.1025 51.8247 23.4057 51.9503 23.7219 51.9503C24.038 51.9503 24.3412 51.8247 24.5648 51.6011C24.7883 51.3776 24.9139 51.0744 24.9139 50.7583V30.3811C24.9133 30.0651 24.7876 29.7623 24.5642 29.5388C24.3407 29.3154 24.0378 29.1896 23.7219 29.1891Z" fill="#172B4D"/>
<path d="M19.8865 31.0263H14.9399C14.7157 31.0319 14.4926 30.9925 14.2838 30.9105C14.0751 30.8285 13.8848 30.7056 13.7243 30.549C13.5637 30.3924 13.4361 30.2052 13.349 29.9985C13.2619 29.7918 13.217 29.5698 13.217 29.3455C13.217 29.1212 13.2619 28.8992 13.349 28.6925C13.4361 28.4858 13.5637 28.2987 13.7243 28.142C13.8848 27.9854 14.0751 27.8625 14.2838 27.7805C14.4926 27.6985 14.7157 27.6592 14.9399 27.6647H19.8865V31.0263ZM14.9399 28.3828C14.8108 28.3786 14.6822 28.4003 14.5617 28.4468C14.4413 28.4933 14.3314 28.5636 14.2386 28.6534C14.1458 28.7432 14.072 28.8507 14.0216 28.9697C13.9712 29.0886 13.9452 29.2164 13.9452 29.3455C13.9452 29.4747 13.9712 29.6025 14.0216 29.7214C14.072 29.8403 14.1458 29.9479 14.2386 30.0377C14.3314 30.1275 14.4413 30.1977 14.5617 30.2442C14.6822 30.2907 14.8108 30.3125 14.9399 30.3083H19.1684V28.3828H14.9399Z" fill="#172B4D"/>
<path d="M46.8053 31.0263H41.8577V27.6647H46.8053C47.2439 27.6755 47.6608 27.8574 47.9672 28.1714C48.2736 28.4854 48.4451 28.9068 48.4451 29.3455C48.4451 29.7842 48.2736 30.2056 47.9672 30.5196C47.6608 30.8336 47.2439 31.0155 46.8053 31.0263ZM42.5757 30.3082H46.8053C47.0552 30.3001 47.2921 30.1951 47.466 30.0154C47.6399 29.8358 47.7371 29.5955 47.7371 29.3455C47.7371 29.0955 47.6399 28.8552 47.466 28.6756C47.2921 28.4959 47.0552 28.3909 46.8053 28.3828H42.5757V30.3082Z" fill="#172B4D"/>
<path d="M46.994 17.3079C46.962 17.3081 46.9302 17.3033 46.8997 17.2935C46.822 17.2686 46.7575 17.2138 46.7201 17.1413C46.6828 17.0688 46.6758 16.9844 46.7007 16.9068L47.5039 14.4027C47.5288 14.3249 47.5836 14.2602 47.6562 14.2227C47.7288 14.1853 47.8133 14.1783 47.8911 14.2032C47.9689 14.2281 48.0337 14.2829 48.0711 14.3555C48.1085 14.4281 48.1156 14.5126 48.0907 14.5904L47.2864 17.0945C47.2665 17.1564 47.2274 17.2104 47.1749 17.2487C47.1224 17.287 47.0591 17.3078 46.994 17.3079Z" fill="#172B4D"/>
<path d="M49.5565 19.2446C49.4903 19.2447 49.426 19.2234 49.3729 19.184C49.3198 19.1446 49.2808 19.0891 49.2617 19.0258C49.2426 18.9625 49.2443 18.8947 49.2668 18.8325C49.2892 18.7703 49.3311 18.717 49.3862 18.6804L51.5753 17.2237C51.609 17.2014 51.6467 17.1859 51.6864 17.1781C51.7261 17.1703 51.7669 17.1705 51.8065 17.1785C51.8461 17.1865 51.8838 17.2022 51.9173 17.2247C51.9509 17.2473 51.9797 17.2762 52.002 17.3099C52.0244 17.3436 52.0399 17.3814 52.0477 17.421C52.0555 17.4607 52.0553 17.5015 52.0473 17.5411C52.0393 17.5808 52.0236 17.6184 52.001 17.652C51.9785 17.6855 51.9495 17.7143 51.9159 17.7367L49.7267 19.1933C49.6763 19.2268 49.617 19.2447 49.5565 19.2446Z" fill="#172B4D"/>
<path d="M48.9481 17.5469C48.8908 17.5468 48.8346 17.5307 48.786 17.5004C48.7373 17.4701 48.6981 17.4268 48.6727 17.3754C48.6473 17.324 48.6368 17.2665 48.6423 17.2095C48.6478 17.1524 48.6692 17.098 48.704 17.0524L50.2971 14.9608C50.3466 14.8957 50.4199 14.853 50.5009 14.8421C50.5819 14.8311 50.6639 14.8528 50.729 14.9023C50.794 14.9518 50.8367 15.0251 50.8476 15.1061C50.8586 15.1871 50.837 15.2691 50.7874 15.3342L49.1933 17.4258C49.1645 17.4635 49.1274 17.4941 49.0849 17.5151C49.0424 17.5361 48.9956 17.547 48.9481 17.5469Z" fill="#172B4D"/>
<path d="M22.0634 46.5036C24.6189 43.9481 24.6189 39.8048 22.0634 37.2492C19.5078 34.6937 15.3645 34.6937 12.809 37.2492C10.2535 39.8048 10.2535 43.9481 12.809 46.5036C15.3645 49.0591 19.5078 49.0591 22.0634 46.5036Z" fill="#FDE5F0"/>
<path d="M17.4357 48.7794C16.0705 48.7791 14.736 48.3741 13.601 47.6155C12.466 46.8569 11.5814 45.7788 11.0591 44.5174C10.5368 43.2561 10.4002 41.8682 10.6667 40.5292C10.9332 39.1903 11.5907 37.9604 12.5561 36.9951C13.5215 36.0299 14.7515 35.3725 16.0905 35.1063C17.4295 34.84 18.8173 34.9768 20.0786 35.4992C21.3399 36.0217 22.4179 36.9065 23.1763 38.0416C23.9348 39.1768 24.3396 40.5113 24.3396 41.8765C24.3377 43.7069 23.6097 45.4617 22.3153 46.7558C21.021 48.05 19.2661 48.7777 17.4357 48.7794ZM17.4357 35.6918C16.2126 35.692 15.0169 36.0549 14 36.7346C12.983 37.4143 12.1905 38.3803 11.7225 39.5104C11.2546 40.6406 11.1322 41.8841 11.371 43.0837C11.6097 44.2834 12.1989 45.3853 13.0639 46.2502C13.9288 47.115 15.0309 47.7039 16.2306 47.9425C17.4303 48.1811 18.6737 48.0585 19.8038 47.5904C20.9339 47.1222 21.8997 46.3295 22.5793 45.3125C23.2588 44.2954 23.6215 43.0997 23.6215 41.8765C23.6196 40.2366 22.9673 38.6645 21.8076 37.505C20.6479 36.3455 19.0756 35.6934 17.4357 35.6918Z" fill="#172B4D"/>
<path d="M20.6329 44.0007L15.6005 39.2717C15.3559 39.0418 14.9712 39.0537 14.7412 39.2984C14.5113 39.5431 14.5233 39.9278 14.7679 40.1577L19.8003 44.8867C20.045 45.1166 20.4297 45.1047 20.6596 44.86C20.8895 44.6154 20.8776 44.2306 20.6329 44.0007Z" fill="#EE0064"/>
<path d="M19.766 39.0276L14.8738 43.879C14.6323 44.1185 14.6307 44.5084 14.8702 44.7499C15.1096 44.9914 15.4996 44.993 15.7411 44.7536L20.6333 39.9021C20.8748 39.6627 20.8764 39.2727 20.6369 39.0312C20.3975 38.7897 20.0075 38.7881 19.766 39.0276Z" fill="#EE0064"/>
</svg>
