<svg width="32" height="32" viewBox="0 0 32 32" fill="none" xmlns="http://www.w3.org/2000/svg">
<rect x="0.5" y="0.5" width="31" height="31" rx="7.5" stroke="#E8EAED"/>
<path d="M15.9998 19.3347V12.6653" stroke="#748094" stroke-width="1.2" stroke-linecap="round" stroke-linejoin="round"/>
<path d="M18.5011 16.8337L16.0001 19.3348L13.499 16.8337" stroke="#748094" stroke-width="1.2" stroke-linecap="round" stroke-linejoin="round"/>
<path d="M15.9404 8.49683C20.0843 8.49683 23.4436 11.8561 23.4436 16C23.4436 20.1438 20.0843 23.5031 15.9404 23.5031" stroke="#748094" stroke-width="1.2" stroke-linecap="round" stroke-linejoin="round"/>
<path d="M13.3767 23.0439C12.5543 22.7461 11.7903 22.3068 11.1191 21.7458" stroke="#748094" stroke-width="1.2" stroke-linecap="round" stroke-linejoin="round"/>
<path d="M11.1191 10.2543C11.7899 9.69279 12.554 9.25344 13.3767 8.9563" stroke="#748094" stroke-width="1.2" stroke-linecap="round" stroke-linejoin="round"/>
<path d="M8.55762 14.6979C8.70826 13.8356 9.00936 13.0065 9.44715 12.2485" stroke="#748094" stroke-width="1.2" stroke-linecap="round" stroke-linejoin="round"/>
<path d="M8.55762 17.3013C8.70817 18.1638 9.00927 18.9932 9.44715 19.7515" stroke="#748094" stroke-width="1.2" stroke-linecap="round" stroke-linejoin="round"/>
</svg>
