<svg width="14" height="14" viewBox="0 0 14 14" fill="none" xmlns="http://www.w3.org/2000/svg">
<path d="M9.93671 6.68834L5.56172 2.31334C5.49846 2.25399 5.4197 2.21376 5.33453 2.1973C5.24936 2.18085 5.16128 2.18885 5.08047 2.22037C5.00085 2.25384 4.93291 2.31013 4.88522 2.38214C4.83753 2.45416 4.81223 2.53868 4.8125 2.62506V11.3751C4.81223 11.4614 4.83753 11.5459 4.88522 11.618C4.93291 11.69 5.00085 11.7463 5.08047 11.7797C5.13444 11.8012 5.19194 11.8123 5.25 11.8126C5.36618 11.8121 5.47774 11.767 5.56172 11.6868L9.93671 7.31177C10.0189 7.22883 10.065 7.1168 10.065 7.00006C10.065 6.88331 10.0189 6.77128 9.93671 6.68834Z" fill="#A2AAB8"/>
</svg>
