<svg width="16" height="16" viewBox="0 0 16 16" fill="none" xmlns="http://www.w3.org/2000/svg">
<path d="M7.94109 4.76517L8.05092 4.875H8.20625H13.5C13.6658 4.875 13.8247 4.94085 13.9419 5.05806C14.0592 5.17527 14.125 5.33424 14.125 5.5V12.5548C14.1237 12.7056 14.0633 12.8499 13.9566 12.9566C13.8499 13.0633 13.7056 13.1237 13.5548 13.125H2.4625C2.30669 13.125 2.15725 13.0631 2.04707 12.9529C1.9369 12.8427 1.875 12.6933 1.875 12.5375V3.5C1.875 3.33424 1.94085 3.17527 2.05806 3.05806C2.17527 2.94085 2.33424 2.875 2.5 2.875H5.79285C5.95874 2.8759 6.11762 2.94206 6.23511 3.05919C6.23514 3.05922 6.23517 3.05925 6.23519 3.05927L7.94109 4.76517ZM2.5 3.125H2.125V3.5V4.5V4.875H2.5H6.79375H7.69908L7.05891 4.23483L6.05891 3.23483L5.94908 3.125H5.79375H2.5Z" fill="#6974FB" stroke="#6974FB" stroke-width="0.75"/>
</svg>
