<svg width="25" height="24" viewBox="0 0 25 24" fill="none" xmlns="http://www.w3.org/2000/svg">
<path d="M11.9664 2.7824L9.27496 5.47382C8.98207 5.76671 8.98207 6.24159 9.27496 6.53448L11.9644 9.22392C12.2573 9.51681 12.7322 9.51681 13.025 9.22392L15.7165 6.53249C16.0094 6.2396 16.0094 5.76472 15.7165 5.47183L13.027 2.7824C12.7341 2.4895 12.2593 2.4895 11.9664 2.7824Z" stroke="#A2AAB8" stroke-width="1.3" stroke-linecap="round" stroke-linejoin="round"/>
<path d="M17.9672 8.7824L15.2758 11.4738C14.9829 11.7667 14.9829 12.2416 15.2758 12.5345L17.9653 15.2239C18.2581 15.5168 18.733 15.5168 19.0259 15.2239L21.7173 12.5325C22.0102 12.2396 22.0102 11.7647 21.7173 11.4718L19.0279 8.7824C18.735 8.4895 18.2601 8.4895 17.9672 8.7824Z" stroke="#A2AAB8" stroke-width="1.3" stroke-linecap="round" stroke-linejoin="round"/>
<path d="M5.96638 8.7741L3.27496 11.4655C2.98207 11.7584 2.98207 12.2333 3.27496 12.5262L5.9644 15.2156C6.25729 15.5085 6.73216 15.5085 7.02506 15.2156L9.71648 12.5242C10.0094 12.2313 10.0094 11.7564 9.71648 11.4635L7.02704 8.7741C6.73415 8.4812 6.25928 8.4812 5.96638 8.7741Z" stroke="#A2AAB8" stroke-width="1.3" stroke-linecap="round" stroke-linejoin="round"/>
<path d="M11.9672 14.7741L9.27581 17.4655C8.98292 17.7584 8.98292 18.2333 9.27581 18.5262L11.9653 21.2156C12.2581 21.5085 12.733 21.5085 13.0259 21.2156L15.7173 18.5242C16.0102 18.2313 16.0102 17.7564 15.7173 17.4635L13.0279 14.7741C12.735 14.4812 12.2601 14.4812 11.9672 14.7741Z" stroke="#A2AAB8" stroke-width="1.3" stroke-linecap="round" stroke-linejoin="round"/>
</svg>
