<svg width="25" height="24" viewBox="0 0 25 24" fill="none" xmlns="http://www.w3.org/2000/svg">
<g clip-path="url(#clip0_800_1121)">
<path d="M8.52321 6.7688C8.22814 6.46933 8.06273 6.06579 8.06273 5.64537C8.06273 5.22495 8.22814 4.82141 8.52321 4.52194L11.3765 1.66864C11.5235 1.52015 11.6985 1.40227 11.8913 1.32182C12.0841 1.24137 12.291 1.19995 12.5 1.19995C12.7089 1.19995 12.9158 1.24137 13.1086 1.32182C13.3014 1.40227 13.4764 1.52015 13.6234 1.66864L16.4767 4.52194C16.7718 4.82141 16.9372 5.22495 16.9372 5.64537C16.9372 6.06579 16.7718 6.46933 16.4767 6.7688L13.6234 9.62211C13.4764 9.7706 13.3014 9.88848 13.1086 9.96892C12.9158 10.0494 12.7089 10.0908 12.5 10.0908C12.291 10.0908 12.0841 10.0494 11.8913 9.96892C11.6985 9.88848 11.5235 9.7706 11.3765 9.62211L8.52321 6.7688ZM22.8395 10.8847L19.9862 8.03141C19.8392 7.88292 19.6642 7.76504 19.4714 7.6846C19.2785 7.60415 19.0717 7.56273 18.8627 7.56273C18.6538 7.56273 18.4469 7.60415 18.2541 7.6846C18.0613 7.76504 17.8863 7.88292 17.7393 8.03141L14.886 10.8847C14.5909 11.1842 14.4255 11.5877 14.4255 12.0081C14.4255 12.4286 14.5909 12.8321 14.886 13.1316L17.7393 15.9849C17.8863 16.1334 18.0613 16.2512 18.2541 16.3317C18.4469 16.4121 18.6538 16.4536 18.8627 16.4536C19.0717 16.4536 19.2785 16.4121 19.4714 16.3317C19.6642 16.2512 19.8392 16.1334 19.9862 15.9849L22.8395 13.1316C23.1345 12.8321 23.3 12.4286 23.3 12.0081C23.3 11.5877 23.1345 11.1842 22.8395 10.8847ZM10.1139 10.8847L7.2606 8.03141C7.11361 7.88292 6.93864 7.76504 6.74581 7.6846C6.55298 7.60415 6.34611 7.56273 6.13717 7.56273C5.92823 7.56273 5.72137 7.60415 5.52853 7.6846C5.3357 7.76504 5.16073 7.88292 5.01374 8.03141L2.16044 10.8847C1.86536 11.1842 1.69995 11.5877 1.69995 12.0081C1.69995 12.4286 1.86536 12.8321 2.16044 13.1316L5.01374 15.9849C5.16073 16.1334 5.3357 16.2512 5.52853 16.3317C5.72137 16.4121 5.92823 16.4536 6.13717 16.4536C6.34611 16.4536 6.55298 16.4121 6.74581 16.3317C6.93864 16.2512 7.11361 16.1334 7.2606 15.9849L10.1139 13.1316C10.409 12.8321 10.5744 12.4286 10.5744 12.0081C10.5744 11.5877 10.409 11.1842 10.1139 10.8847ZM13.6234 14.3942C13.4764 14.2457 13.3014 14.1278 13.1086 14.0474C12.9158 13.9669 12.7089 13.9255 12.5 13.9255C12.291 13.9255 12.0841 13.9669 11.8913 14.0474C11.6985 14.1278 11.5235 14.2457 11.3765 14.3942L8.52321 17.2475C8.22814 17.547 8.06273 17.9505 8.06273 18.3709C8.06273 18.7913 8.22814 19.1949 8.52321 19.4943L11.3765 22.3477C11.5235 22.4961 11.6985 22.614 11.8913 22.6945C12.0841 22.7749 12.291 22.8163 12.5 22.8163C12.7089 22.8163 12.9158 22.7749 13.1086 22.6945C13.3014 22.614 13.4764 22.4961 13.6234 22.3477L16.4767 19.4943C16.7718 19.1949 16.9372 18.7913 16.9372 18.3709C16.9372 17.9505 16.7718 17.547 16.4767 17.2475L13.6234 14.3942Z" fill="#0517F8"/>
</g>
<defs>
<clipPath id="clip0_800_1121">
<rect width="24" height="24" fill="white" transform="translate(0.5)"/>
</clipPath>
</defs>
</svg>
