<svg width="25" height="24" viewBox="0 0 25 24" fill="none" xmlns="http://www.w3.org/2000/svg">
<path d="M22.3445 13.6696L20.9013 11.7518C20.911 11.5775 20.9013 11.3935 20.9013 11.2579L22.3445 9.33036C22.4163 9.23656 22.4651 9.12723 22.4869 9.01117C22.5088 8.8951 22.5032 8.77552 22.4704 8.66203C22.2263 7.76905 21.8717 6.91005 21.4147 6.10496C21.3557 6.00269 21.2747 5.91485 21.1775 5.84783C21.0803 5.78081 20.9694 5.7363 20.8529 5.71753L18.4799 5.37852L18.1215 5.02014L17.7825 2.6471C17.7635 2.53183 17.72 2.42199 17.6548 2.32506C17.5896 2.22812 17.5043 2.14635 17.4047 2.08532C16.5954 1.63 15.7334 1.27545 14.838 1.02956C14.7245 0.996844 14.6049 0.991195 14.4888 1.01306C14.3728 1.03493 14.2634 1.08371 14.1696 1.15547L12.2518 2.58898H11.7482L9.83036 1.15547C9.73656 1.08371 9.62723 1.03493 9.51117 1.01306C9.3951 0.991195 9.27552 0.996844 9.16203 1.02956C8.26905 1.27366 7.41005 1.62833 6.60496 2.08532C6.50269 2.14428 6.41485 2.2253 6.34783 2.32248C6.28081 2.41966 6.2363 2.53055 6.21753 2.6471L5.87852 5.02014L5.52014 5.37852L3.1471 5.71753C3.03055 5.7363 2.91966 5.78081 2.82248 5.84783C2.7253 5.91485 2.64428 6.00269 2.58532 6.10496C2.12833 6.91005 1.77366 7.76905 1.52956 8.66203C1.49684 8.77552 1.49119 8.8951 1.51306 9.01117C1.53493 9.12723 1.58371 9.23656 1.65547 9.33036L3.09867 11.2482V11.7421L1.65547 13.6696C1.58371 13.7634 1.53493 13.8728 1.51306 13.9888C1.49119 14.1049 1.49684 14.2245 1.52956 14.338C1.77366 15.2309 2.12833 16.09 2.58532 16.895C2.64428 16.9973 2.7253 17.0851 2.82248 17.1522C2.91966 17.2192 3.03055 17.2637 3.1471 17.2825L5.52014 17.6215L5.87852 17.9799L6.21753 20.3529C6.2363 20.4694 6.28081 20.5803 6.34783 20.6775C6.41485 20.7747 6.50269 20.8557 6.60496 20.9147C7.41005 21.3717 8.26905 21.7263 9.16203 21.9704C9.22814 21.9896 9.29661 21.9994 9.36544 21.9995C9.53345 22.0017 9.69727 21.9471 9.83036 21.8445L11.7482 20.411H12.2518L14.1696 21.8445C14.2634 21.9163 14.3728 21.9651 14.4888 21.9869C14.6049 22.0088 14.7245 22.0032 14.838 21.9704C15.7315 21.7281 16.5908 21.3733 17.395 20.9147C17.4973 20.8557 17.5851 20.7747 17.6522 20.6775C17.7192 20.5803 17.7637 20.4694 17.7825 20.3529L18.1215 17.9702C18.2377 17.8539 18.3733 17.728 18.4702 17.6215L20.8529 17.2825C20.9694 17.2637 21.0803 17.2192 21.1775 17.1522C21.2747 17.0851 21.3557 16.9973 21.4147 16.895C21.8717 16.09 22.2263 15.2309 22.4704 14.338C22.5032 14.2245 22.5088 14.1049 22.4869 13.9888C22.4651 13.8728 22.4163 13.7634 22.3445 13.6696ZM12 15.7618C11.1571 15.7618 10.3331 15.5118 9.63228 15.0435C8.93143 14.5753 8.38518 13.9097 8.06262 13.1309C7.74006 12.3522 7.65566 11.4953 7.8201 10.6686C7.98454 9.84186 8.39044 9.08248 8.98646 8.48646C9.58248 7.89044 10.3419 7.48454 11.1686 7.3201C11.9953 7.15566 12.8522 7.24006 13.6309 7.56262C14.4097 7.88518 15.0753 8.43143 15.5435 9.13228C16.0118 9.83312 16.2618 10.6571 16.2618 11.5C16.2618 12.6303 15.8128 13.7143 15.0135 14.5135C14.2143 15.3128 13.1303 15.7618 12 15.7618Z" fill="#0517F8"/>
</svg>
