<svg width="25" height="24" viewBox="0 0 25 24" fill="none" xmlns="http://www.w3.org/2000/svg">
<path d="M12.5 16.5C14.9853 16.5 17 14.4853 17 12C17 9.51472 14.9853 7.5 12.5 7.5C10.0147 7.5 8 9.51472 8 12C8 14.4853 10.0147 16.5 12.5 16.5Z" stroke="#A2AAB8" stroke-width="1.4" stroke-linecap="round" stroke-linejoin="round"/>
<path d="M17.7219 6.10303C17.9594 6.32178 18.1844 6.54678 18.3969 6.77803L20.9563 7.14365C21.3733 7.86788 21.6947 8.64308 21.9125 9.44991L20.3563 11.5218C20.3563 11.5218 20.3844 12.1593 20.3563 12.478L21.9125 14.5499C21.6957 15.3571 21.3743 16.1324 20.9563 16.8562L18.3969 17.2218C18.3969 17.2218 17.9563 17.6812 17.7219 17.8968L17.3563 20.4562C16.6321 20.8732 15.8569 21.1946 15.05 21.4124L12.9782 19.8562C12.66 19.8843 12.34 19.8843 12.0219 19.8562L9.95003 21.4124C9.14286 21.1956 8.36753 20.8741 7.64378 20.4562L7.27815 17.8968C7.0469 17.678 6.8219 17.453 6.60315 17.2218L4.04377 16.8562C3.62676 16.1319 3.30533 15.3567 3.08752 14.5499L4.64378 12.478C4.64378 12.478 4.61565 11.8405 4.64378 11.5218L3.08752 9.44991C3.30432 8.64274 3.6258 7.86741 4.04377 7.14365L6.60315 6.77803C6.8219 6.54678 7.0469 6.32178 7.27815 6.10303L7.64378 3.54365C8.368 3.12664 9.1432 2.80521 9.95003 2.5874L12.0219 4.14365C12.34 4.11552 12.66 4.11552 12.9782 4.14365L15.05 2.5874C15.8572 2.8042 16.6325 3.12568 17.3563 3.54365L17.7219 6.10303Z" stroke="#A2AAB8" stroke-width="1.4" stroke-linecap="round" stroke-linejoin="round"/>
</svg>
