<svg width="44" height="44" viewBox="0 0 44 44" fill="none" xmlns="http://www.w3.org/2000/svg">
<rect width="44" height="44" rx="8" fill="#E6E8FE"/>
<path d="M25.125 29.5H16.375C16.2092 29.5 16.0503 29.4342 15.9331 29.3169C15.8158 29.1997 15.75 29.0408 15.75 28.875V17.625C15.75 17.4592 15.8158 17.3003 15.9331 17.1831C16.0503 17.0658 16.2092 17 16.375 17H22.625L25.75 20.125V28.875C25.75 29.0408 25.6842 29.1997 25.5669 29.3169C25.4497 29.4342 25.2908 29.5 25.125 29.5Z" stroke="#0517F8" stroke-width="1.2" stroke-linecap="round" stroke-linejoin="round"/>
<path d="M18.25 17V15.125C18.25 14.9592 18.3158 14.8003 18.4331 14.6831C18.5503 14.5658 18.7092 14.5 18.875 14.5H25.125L28.25 17.625V26.375C28.25 26.5408 28.1842 26.6997 28.0669 26.8169C27.9497 26.9342 27.7908 27 27.625 27H25.75" stroke="#0517F8" stroke-width="1.2" stroke-linecap="round" stroke-linejoin="round"/>
<path d="M18.875 23.875H22.625" stroke="#0517F8" stroke-width="1.2" stroke-linecap="round" stroke-linejoin="round"/>
<path d="M18.875 26.375H22.625" stroke="#0517F8" stroke-width="1.2" stroke-linecap="round" stroke-linejoin="round"/>
</svg>
