<svg width="24" height="24" viewBox="0 0 24 24" fill="none" xmlns="http://www.w3.org/2000/svg">
<circle cx="12" cy="12" r="12" fill="#E6E8FE"/>
<path fill-rule="evenodd" clip-rule="evenodd" d="M16.8126 8.67615L14.8234 6.79081C14.5596 6.54081 14.2015 6.40015 13.8287 6.40015H8.78379C8.00651 6.40015 7.37695 6.99681 7.37695 7.73348V17.0668C7.37695 17.8035 8.00651 18.4001 8.78379 18.4001H15.818C16.5953 18.4001 17.2248 17.8035 17.2248 17.0668V9.61881C17.2248 9.26548 17.0764 8.92615 16.8126 8.67615V8.67615Z" stroke="#0517F8" stroke-width="1.2" stroke-linecap="round" stroke-linejoin="round"/>
<path d="M17.2251 9.73348H14.4114C14.0231 9.73348 13.708 9.43481 13.708 9.06681V6.40015" stroke="#0517F8" stroke-width="1.2" stroke-linecap="round" stroke-linejoin="round"/>
<path d="M9.4873 13.7335H13.7078" stroke="#0517F8" stroke-width="1.2" stroke-linecap="round" stroke-linejoin="round"/>
<path d="M9.4873 15.7335H12.5331" stroke="#0517F8" stroke-width="1.2" stroke-linecap="round" stroke-linejoin="round"/>
</svg>
