<svg width="40" height="40" viewBox="0 0 40 40" fill="none" xmlns="http://www.w3.org/2000/svg">
<path d="M8.74998 5H24.6809L33.1249 13.4113V33.125C33.1249 34.1609 32.285 35 31.25 35H8.74998C7.71495 35 6.875 34.1609 6.875 33.125V6.87498C6.875 5.83908 7.71505 5 8.74998 5Z" fill="#EE0047"/>
<path d="M33.0979 13.4375H26.5625C25.5275 13.4375 24.6876 12.5975 24.6876 11.5625V5.01874L33.0979 13.4375Z" fill="white" fill-opacity="0.7"/>
<path d="M26.0919 21.0791C26.406 21.0791 26.5597 20.8053 26.5597 20.54C26.5597 20.2653 26.3994 20 26.0919 20H24.3031C23.9534 20 23.7584 20.2897 23.7584 20.6094V25.0053C23.7584 25.3972 23.9816 25.6147 24.2834 25.6147C24.5835 25.6147 24.8075 25.3972 24.8075 25.0053V23.7988H25.8894C26.2251 23.7988 26.3929 23.524 26.3929 23.2513C26.3929 22.9841 26.2251 22.7187 25.8894 22.7187H24.8075V21.0791H26.0919ZM20.0459 20H18.7372C18.3818 20 18.1296 20.2438 18.1296 20.6056V25.0091C18.1296 25.4581 18.4924 25.5988 18.7521 25.5988H20.1256C21.7512 25.5988 22.8246 24.5291 22.8246 22.8781C22.8237 21.1325 21.8131 20 20.0459 20ZM20.1088 24.5132H19.3109V21.0857H20.03C21.1185 21.0857 21.5919 21.816 21.5919 22.8238C21.5919 23.7669 21.1268 24.5132 20.1088 24.5132ZM15.3144 20H14.0178C13.6513 20 13.4469 20.2418 13.4469 20.6094V25.0053C13.4469 25.3972 13.6812 25.6147 13.9962 25.6147C14.3112 25.6147 14.5455 25.3972 14.5455 25.0053V23.7218H15.3583C16.3614 23.7218 17.1893 23.0112 17.1893 21.8684C17.1894 20.75 16.3906 20 15.3144 20ZM15.2928 22.6907H14.5456V21.0322H15.2928C15.7541 21.0322 16.0475 21.3922 16.0475 21.8619C16.0466 22.3307 15.7541 22.6907 15.2928 22.6907Z" fill="white"/>
</svg>
