<svg width="20" height="20" viewBox="0 0 20 20" fill="none" xmlns="http://www.w3.org/2000/svg">
<g clip-path="url(#clip0_1295_13725)">
<path d="M17.1875 13.6954V6.30479C17.1869 6.19352 17.157 6.08437 17.1007 5.98836C17.0445 5.89235 16.9639 5.81286 16.8672 5.75791L10.3047 2.04697C10.2121 1.99349 10.107 1.96533 10 1.96533C9.89303 1.96533 9.78795 1.99349 9.69531 2.04697L3.13281 5.75791C3.03606 5.81286 2.9555 5.89235 2.89926 5.98836C2.84302 6.08437 2.8131 6.19352 2.8125 6.30479V13.6954C2.8131 13.8067 2.84302 13.9158 2.89926 14.0118C2.9555 14.1079 3.03606 14.1873 3.13281 14.2423L9.69531 17.9532C9.78795 18.0067 9.89303 18.0349 10 18.0349C10.107 18.0349 10.2121 18.0067 10.3047 17.9532L16.8672 14.2423C16.9639 14.1873 17.0445 14.1079 17.1007 14.0118C17.157 13.9158 17.1869 13.8067 17.1875 13.6954V13.6954Z" stroke="#0517F8" stroke-width="1.2" stroke-linecap="round" stroke-linejoin="round"/>
<path d="M10 12.8125C11.5533 12.8125 12.8125 11.5533 12.8125 10C12.8125 8.4467 11.5533 7.1875 10 7.1875C8.4467 7.1875 7.1875 8.4467 7.1875 10C7.1875 11.5533 8.4467 12.8125 10 12.8125Z" stroke="#0517F8" stroke-width="1.2" stroke-linecap="round" stroke-linejoin="round"/>
</g>
<defs>
<clipPath id="clip0_1295_13725">
<rect width="20" height="20" fill="white"/>
</clipPath>
</defs>
</svg>
