<svg width="119" height="40" viewBox="0 0 119 40" fill="none" xmlns="http://www.w3.org/2000/svg">
<path d="M20.1294 10.7083L23.9438 12.9032C25.2491 13.6542 26.0536 15.0454 26.0536 16.5513V23.6037C26.0536 25.1096 25.2491 26.5008 23.9438 27.2519L20.1294 29.4467C18.8299 30.1945 17.2306 30.1945 15.931 29.4467L12.1166 27.2519C10.8114 26.5008 10.0068 25.1096 10.0068 23.6037V16.5513C10.0068 15.0454 10.8114 13.6542 12.1166 12.9032L15.931 10.7083C17.2306 9.96051 18.8299 9.96051 20.1294 10.7083ZM16.0073 14.5386L15.9677 14.5611L12.6397 16.4827C11.3763 17.2122 10.5932 18.5541 10.5776 20.0107L10.5774 20.0548V20.1002C10.5774 21.5591 11.3479 22.9082 12.6015 23.65L12.6397 23.6723L15.9677 25.5939C17.2308 26.3232 18.7841 26.3308 20.0532 25.6165L20.0928 25.5939L23.4208 23.6723C24.6842 22.9428 25.4673 21.601 25.4828 20.1444L25.4831 20.1002V20.0548C25.4831 18.596 24.7126 17.2468 23.4589 16.505L23.4208 16.4827L20.0928 14.5611C18.8296 13.8318 17.2764 13.8243 16.0073 14.5386ZM38.0738 15.3069C38.2562 15.3069 38.3966 15.3907 38.4948 15.5444L42.0177 21.2604L45.5265 15.5444C45.6247 15.3907 45.7651 15.3069 45.9475 15.3069H47.4493C47.6739 15.3069 47.8002 15.4326 47.8002 15.6562V24.8241C47.8002 25.0477 47.6739 25.1735 47.4493 25.1735H46.2142C45.9897 25.1735 45.8633 25.0477 45.8633 24.8241V18.4234L42.8177 23.2868C42.7194 23.4405 42.5791 23.5244 42.3966 23.5244H41.6107C41.4282 23.5244 41.2878 23.4405 41.1896 23.2868L38.144 18.4373V24.8241C38.144 25.0477 38.0176 25.1735 37.7931 25.1735H36.558C36.3334 25.1735 36.2071 25.0477 36.2071 24.8241V15.6562C36.2071 15.4326 36.3334 15.3069 36.558 15.3069H38.0738ZM56.4338 15.3069C56.6303 15.3069 56.7566 15.3907 56.8408 15.5584L61.29 24.7682C61.4023 25.0058 61.29 25.1735 61.0233 25.1735H59.6058C59.4093 25.1735 59.2689 25.0896 59.1847 24.9079L57.9449 22.3173H53.5053L52.1811 24.9079C52.0969 25.0756 51.9566 25.1735 51.7601 25.1735H50.3425C50.0759 25.1735 49.9636 25.0058 50.0759 24.7682L54.5391 15.5584C54.6233 15.3907 54.7496 15.3069 54.9461 15.3069H56.4338ZM104.015 15.3069C104.212 15.3069 104.338 15.3907 104.422 15.5584L108.871 24.7682C108.984 25.0058 108.871 25.1735 108.605 25.1735H107.187C106.991 25.1735 106.85 25.0896 106.766 24.9079L105.526 22.3173H101.087L99.7624 24.9079C99.6782 25.0756 99.5378 25.1735 99.3414 25.1735H97.9238C97.6571 25.1735 97.5448 25.0058 97.6571 24.7682L102.12 15.5584C102.205 15.3907 102.331 15.3069 102.527 15.3069H104.015ZM65.1657 15.3069C65.3903 15.3069 65.5166 15.4326 65.5166 15.6562V19.4016H67.3692L70.6535 15.5025C70.7658 15.3628 70.9061 15.3069 71.0886 15.3069H72.6184C72.9131 15.3069 73.0114 15.5025 72.8149 15.7401L68.9973 20.2262L72.8149 24.7402C73.0114 24.9778 72.9131 25.1735 72.6184 25.1735H71.0886C70.9061 25.1735 70.7658 25.1176 70.6535 24.9778L67.3692 21.1346H65.5166V24.8241C65.5166 25.0477 65.3903 25.1735 65.1657 25.1735H63.9166C63.692 25.1735 63.5657 25.0477 63.5657 24.8241V15.6562C63.5657 15.4326 63.692 15.3069 63.9166 15.3069H65.1657ZM76.7888 15.3069C77.0134 15.3069 77.1397 15.4326 77.1397 15.6562V21.8473C77.1397 23.0492 77.5748 23.3147 78.5152 23.3147H81.6731C82.6134 23.3147 83.0345 23.0492 83.0345 21.8473V15.6562C83.0345 15.4326 83.1608 15.3069 83.3854 15.3069H84.6486C84.8731 15.3069 84.9994 15.4326 84.9994 15.6562V21.7774C84.9994 23.8598 83.9889 25.1735 81.6731 25.1735H78.5152C76.1853 25.1735 75.1888 23.8598 75.1888 21.7774V15.6562C75.1888 15.4326 75.3151 15.3069 75.5397 15.3069H76.7888ZM89.619 15.3069C89.8436 15.3069 89.9699 15.4326 89.9699 15.6562V23.3147H95.7103C95.9348 23.3147 96.0612 23.4405 96.0612 23.6641V24.8241C96.0612 25.0477 95.9348 25.1735 95.7103 25.1735H88.3699C88.1453 25.1735 88.019 25.0477 88.019 24.8241V15.6562C88.019 15.4326 88.1453 15.3069 88.3699 15.3069H89.619ZM55.704 17.3333L54.047 20.7378H57.4194L55.704 17.3333ZM103.285 17.3333L101.628 20.7378H105.001L103.285 17.3333Z" fill="white"/>
</svg>
