<svg width="92" height="101" viewBox="0 0 92 101" fill="none" xmlns="http://www.w3.org/2000/svg">
<path d="M37.7149 82.4333C37.7639 82.8412 37.8115 83.2492 37.8604 83.6571C30.3312 69.0783 22.802 54.5003 15.2727 39.9232C15.1744 39.7328 15.1145 39.5248 15.0966 39.3112C15.0786 39.0976 15.1029 38.8826 15.1681 38.6784C15.2332 38.4742 15.338 38.2849 15.4763 38.1211C15.6147 37.9574 15.7839 37.8226 15.9744 37.7243L23.7067 33.7371C28.3757 49.9687 33.0451 66.2008 37.7149 82.4333Z" fill="#A2AAB8"/>
<path d="M39.2829 84.0909C38.8258 84.0898 38.3814 83.9405 38.0163 83.6654C37.6512 83.3903 37.3852 83.0043 37.2581 82.5651L21.788 28.7871C21.6343 28.2499 21.6998 27.6737 21.9703 27.1847C22.2408 26.6958 22.6941 26.3341 23.2309 26.1789L58.6504 15.9906C59.1876 15.8368 59.7639 15.9024 60.2528 16.1729C60.7418 16.4433 61.1035 16.8967 61.2587 17.4334L76.7287 71.2101C76.8825 71.7475 76.817 72.3239 76.5466 72.8131C76.2761 73.3022 75.8228 73.6642 75.2859 73.8197L39.8663 84.008C39.6768 84.063 39.4804 84.0909 39.2829 84.0909ZM59.2311 16.8596C59.1235 16.8597 59.0164 16.8748 58.9129 16.9044L23.4933 27.0941C23.2007 27.1815 22.9541 27.3806 22.8071 27.6482C22.66 27.9159 22.6242 28.2308 22.7073 28.5247L38.1719 82.3027C38.2579 82.5965 38.4565 82.8444 38.7245 82.9924C38.9924 83.1404 39.3081 83.1765 39.6025 83.0928L75.0221 72.9045C75.3162 72.8189 75.5644 72.6204 75.7127 72.3524C75.861 72.0843 75.8972 71.7686 75.8135 71.4739L60.3435 17.6959C60.3017 17.5501 60.2314 17.4141 60.1366 17.2958C60.0418 17.1774 59.9245 17.0791 59.7914 17.0064C59.62 16.9109 59.4273 16.8604 59.2311 16.8596Z" fill="#172B4D"/>
<path d="M67.2842 58.4489L40.0403 67.0162L67.2842 58.4489Z" fill="white"/>
<path d="M40.0403 67.4935C39.9265 67.4937 39.8164 67.453 39.73 67.3789C39.6436 67.3049 39.5866 67.2023 39.5694 67.0898C39.5521 66.9773 39.5757 66.8624 39.6359 66.7658C39.6961 66.6692 39.7889 66.5974 39.8975 66.5634L67.1415 57.9961C67.2619 57.9582 67.3925 57.9698 67.5045 58.0282C67.6164 58.0866 67.7006 58.1871 67.7385 58.3075C67.7763 58.428 67.7648 58.5585 67.7064 58.6705C67.648 58.7825 67.5475 58.8666 67.4271 58.9045L40.1831 67.4718C40.1369 67.4863 40.0888 67.4936 40.0403 67.4935Z" fill="#172B4D"/>
<path d="M57.296 26.3026L30.0507 34.8713L57.296 26.3026Z" fill="white"/>
<path d="M30.0506 35.354C29.9374 35.3525 29.8284 35.3108 29.7432 35.2361C29.658 35.1615 29.6022 35.059 29.5858 34.9469C29.5694 34.8349 29.5935 34.7207 29.6538 34.6248C29.7141 34.5289 29.8066 34.4577 29.9146 34.4238L57.1599 25.8566C57.2804 25.8187 57.411 25.8302 57.5229 25.8886C57.6349 25.947 57.719 26.0475 57.7569 26.168C57.7948 26.2884 57.7832 26.419 57.7248 26.531C57.6664 26.6429 57.566 26.7271 57.4455 26.765L30.2002 35.3322C30.1518 35.3475 30.1013 35.3548 30.0506 35.354Z" fill="#172B4D"/>
<path d="M58.8802 31.719L31.6362 40.2863L58.8802 31.719Z" fill="white"/>
<path d="M31.6308 40.7637C31.5176 40.7622 31.4086 40.7204 31.3234 40.6458C31.2382 40.5712 31.1824 40.4687 31.166 40.3566C31.1496 40.2446 31.1737 40.1303 31.234 40.0345C31.2943 39.9386 31.3868 39.8673 31.4948 39.8335L58.7388 31.2662C58.7984 31.2475 58.8612 31.2407 58.9235 31.2462C58.9857 31.2517 59.0463 31.2694 59.1018 31.2983C59.1572 31.3272 59.2064 31.3668 59.2465 31.4147C59.2867 31.4626 59.317 31.518 59.3358 31.5777C59.3545 31.6373 59.3613 31.7001 59.3558 31.7623C59.3503 31.8246 59.3326 31.8852 59.3037 31.9406C59.2748 31.9961 59.2352 32.0453 59.1873 32.0854C59.1394 32.1256 59.084 32.1559 59.0243 32.1746L31.7804 40.7419C31.732 40.757 31.6815 40.7643 31.6308 40.7637Z" fill="#172B4D"/>
<path d="M49.7853 41.2123L33.1281 46.4302L49.7853 41.2123Z" fill="white"/>
<path d="M33.128 46.913C33.0148 46.9115 32.9058 46.8697 32.8206 46.7951C32.7354 46.7205 32.6796 46.618 32.6632 46.5059C32.6468 46.3939 32.6709 46.2796 32.7312 46.1838C32.7915 46.0879 32.884 46.0166 32.992 45.9828L49.6479 40.7649C49.7078 40.7453 49.771 40.7377 49.8339 40.7427C49.8968 40.7477 49.958 40.7651 50.0141 40.7939C50.0702 40.8228 50.12 40.8625 50.1605 40.9108C50.2011 40.959 50.2317 41.0149 50.2506 41.075C50.2694 41.1352 50.2761 41.1986 50.2702 41.2613C50.2644 41.3241 50.2461 41.3851 50.2165 41.4408C50.1869 41.4965 50.1465 41.5457 50.0976 41.5856C50.0488 41.6255 49.9926 41.6554 49.9321 41.6734L33.2708 46.8844C33.225 46.9013 33.1768 46.9109 33.128 46.913Z" fill="#172B4D"/>
<path d="M30.6062 66.9225C35.2873 65.9027 38.2554 61.2812 37.2356 56.6001C36.2158 51.919 31.5943 48.9509 26.9132 49.9707C22.232 50.9905 19.264 55.612 20.2838 60.2931C21.3035 64.9742 25.925 67.9423 30.6062 66.9225Z" fill="#E6E8FE"/>
<path d="M28.7559 67.601C26.9458 67.6013 25.1762 67.0647 23.671 66.0592C22.1657 65.0538 20.9925 63.6245 20.2996 61.9522C19.6067 60.2799 19.4253 58.4397 19.7782 56.6643C20.1312 54.8889 21.0027 53.2581 22.2826 51.978C23.5625 50.6979 25.1932 49.8261 26.9686 49.4729C28.744 49.1197 30.5842 49.3008 32.2566 49.9935C33.929 50.6861 35.3584 51.8592 36.3641 53.3642C37.3698 54.8693 37.9066 56.6388 37.9066 58.449C37.9037 60.8751 36.9388 63.2011 35.2233 64.9168C33.5079 66.6324 31.1821 67.5977 28.7559 67.601ZM28.7559 50.2502C27.134 50.2499 25.5484 50.7307 24.1997 51.6316C22.851 52.5326 21.7997 53.8132 21.1789 55.3117C20.5581 56.8101 20.3956 58.459 20.712 60.0498C21.0283 61.6405 21.8093 63.1018 22.9562 64.2487C24.1031 65.3956 25.5643 66.1766 27.1551 66.4929C28.7459 66.8093 30.3948 66.6468 31.8932 66.026C33.3917 65.4052 34.6723 64.3539 35.5733 63.0052C36.4742 61.6565 36.9549 60.0709 36.9547 58.449C36.9518 56.2754 36.0871 54.1917 34.5501 52.6548C33.0132 51.1178 30.9295 50.2531 28.7559 50.2502Z" fill="#172B4D"/>
<path d="M32.9989 61.4051L26.1839 55.001C25.8993 54.7335 25.4517 54.7474 25.1843 55.032C24.9168 55.3167 24.9307 55.7643 25.2153 56.0317L32.0302 62.4358C32.3149 62.7033 32.7624 62.6894 33.0299 62.4048C33.2974 62.1201 33.2835 61.6726 32.9989 61.4051Z" fill="#0517F8"/>
<path d="M31.943 54.6551L25.3404 61.2027C25.0526 61.488 25.0507 61.9526 25.336 62.2404C25.6214 62.5281 26.086 62.5301 26.3737 62.2447L32.9764 55.6972C33.2641 55.4118 33.2661 54.9472 32.9807 54.6595C32.6953 54.3717 32.2308 54.3698 31.943 54.6551Z" fill="#0517F8"/>
<path d="M66.6506 65.6141L63.4032 71.905C62.8701 69.6466 62.3375 67.3888 61.8053 65.1314C63.3374 49.7193 64.8709 34.3073 66.4058 18.8953C66.5432 18.3163 66.8859 17.8068 67.3703 17.4613C67.8548 17.1157 68.4481 16.9576 69.0402 17.0162C69.6324 17.0749 70.1832 17.3462 70.5905 17.78C70.9978 18.2138 71.2339 18.7806 71.2551 19.3753L66.6506 65.6141Z" fill="#CDD1FE"/>
<path d="M63.2318 73.2663L61.328 65.1641L65.9516 18.7743C66.1198 18.088 66.5301 17.4854 67.1069 17.0773C67.6838 16.6692 68.3885 16.4829 69.0917 16.5527C69.7949 16.6225 70.4493 16.9436 70.9346 17.4572C71.42 17.9707 71.7038 18.6422 71.7338 19.3482V19.3849L67.1198 65.757L63.2318 73.2663ZM62.2799 65.1002L63.5637 70.5397L66.1801 65.4741L70.7738 19.3659C70.7495 18.8924 70.5562 18.4434 70.2291 18.1002C69.902 17.7571 69.4628 17.5426 68.991 17.4957C68.5193 17.4489 68.0464 17.5726 67.6581 17.8447C67.2699 18.1167 66.992 18.5189 66.875 18.9783L62.2799 65.1002Z" fill="#172B4D"/>
<path d="M63.4032 71.905C62.8701 69.6467 62.3375 67.3888 61.8053 65.1314C62.0433 64.6616 62.4179 64.2747 62.8797 64.0217C63.3416 63.7686 63.8692 63.6611 64.3933 63.7133C64.9173 63.7655 65.4134 63.975 65.8162 64.3142C66.2191 64.6535 66.5099 65.1066 66.6506 65.6142L63.4032 71.905Z" fill="white"/>
<path d="M63.2318 73.2663L61.3008 65.0716L61.381 64.9152C61.6625 64.36 62.1052 63.9028 62.6511 63.6037C63.197 63.3046 63.8206 63.1775 64.44 63.2391C65.0594 63.3007 65.6458 63.5482 66.122 63.949C66.5983 64.3498 66.9423 64.8852 67.1088 65.485L67.1605 65.6659L63.2318 73.2663ZM62.3071 65.2022L63.5663 70.5424L66.1324 65.572C65.994 65.1951 65.752 64.8649 65.4342 64.6194C65.1164 64.374 64.7357 64.2233 64.336 64.1846C63.9364 64.146 63.5339 64.221 63.1749 64.401C62.816 64.581 62.5152 64.8587 62.3071 65.2022Z" fill="#172B4D"/>
<path d="M70.2175 25.261C70.1094 24.8415 69.8754 24.4652 69.547 24.1826C69.2187 23.9 68.8117 23.7248 68.3808 23.6803C67.9499 23.6359 67.5157 23.7245 67.1366 23.9341C66.7575 24.1437 66.4517 24.4644 66.2602 24.853L65.4076 24.4287C65.6858 23.8672 66.1289 23.4042 66.6776 23.1015C67.2263 22.7988 67.8543 22.671 68.4777 22.7352C69.101 22.7994 69.6898 23.0526 70.1653 23.4607C70.6408 23.8688 70.9802 24.4125 71.1382 25.0189L70.2175 25.261Z" fill="#172B4D"/>
<path d="M69.9116 28.8877C69.8031 28.4684 69.5689 28.0922 69.2404 27.8098C68.912 27.5274 68.505 27.3522 68.0741 27.3078C67.6432 27.2634 67.209 27.3519 66.8299 27.5614C66.4507 27.7709 66.1447 28.0913 65.953 28.4798L65.1017 28.0555C65.3798 27.494 65.8228 27.0308 66.3714 26.7281C66.92 26.4253 67.548 26.2974 68.1713 26.3614C68.7946 26.4255 69.3835 26.6784 69.859 27.0864C70.3346 27.4944 70.6742 28.038 70.8322 28.6443L69.9116 28.8877Z" fill="#172B4D"/>
</svg>
