<svg width="140" height="140" viewBox="0 0 140 140" fill="none" xmlns="http://www.w3.org/2000/svg">
<g clip-path="url(#clip0_390_4713)">
<path d="M57.3804 121.402C62.7069 118.284 116.686 86.6587 118.923 84.6669C120.326 83.4098 120.257 82.2505 120.257 82.2505C120.23 81.8929 120.113 81.5481 119.916 81.2486C119.162 80.0392 116.099 75.0013 111.908 68.1003" fill="#A2AAB8"/>
<path d="M56.9605 122.182C56.5004 122.183 56.0446 122.093 55.6193 121.917C55.194 121.742 54.8075 121.484 54.4821 121.158L45.3484 112.025L45.9543 111.436C47.1616 110.257 48.123 108.851 48.7828 107.298C49.4426 105.746 49.7876 104.077 49.7979 102.39C49.8081 100.703 49.4834 99.0311 48.8425 97.4705C48.2016 95.9099 47.2574 94.4921 46.0644 93.2991C44.8715 92.1062 43.4537 91.1619 41.8931 90.5211C40.3325 89.8802 38.6602 89.5555 36.9732 89.5657C35.2862 89.576 33.6179 89.921 32.0653 90.5807C30.5126 91.2405 29.1063 92.2019 27.9279 93.4093L27.3387 94.0152L18.2075 84.8839C17.8813 84.5578 17.6226 84.1707 17.4461 83.7446C17.2696 83.3186 17.1787 82.8619 17.1787 82.4007C17.1787 81.9395 17.2696 81.4828 17.4461 81.0568C17.6226 80.6307 17.8813 80.2436 18.2075 79.9175L79.9175 18.2099C80.2429 17.884 80.6294 17.6254 81.0549 17.449C81.4804 17.2726 81.9365 17.1818 82.3971 17.1818C82.8577 17.1818 83.3138 17.2726 83.7392 17.449C84.1647 17.6254 84.5512 17.884 84.8767 18.2099L94.0079 27.3412L93.4044 27.9304C92.1881 29.1065 91.2181 30.513 90.5509 32.0679C89.8838 33.6228 89.5329 35.2949 89.5186 36.9869C89.5043 38.6788 89.827 40.3566 90.4679 41.9225C91.1087 43.4884 92.0549 44.9111 93.2512 46.1076C94.4475 47.3041 95.8701 48.2504 97.4359 48.8915C99.0017 49.5325 100.68 49.8554 102.371 49.8414C104.063 49.8274 105.736 49.4766 107.291 48.8097C108.845 48.1427 110.252 47.1729 111.428 45.9567L112.02 45.3509L121.151 54.4821C121.808 55.1408 122.177 56.0329 122.177 56.9629C122.177 57.893 121.808 58.7851 121.151 59.4437L59.4413 121.158C59.1154 121.484 58.7285 121.742 58.3028 121.917C57.8771 122.093 57.421 122.183 56.9605 122.182ZM47.7147 112.022L55.6676 119.978C56.0131 120.321 56.4805 120.514 56.9676 120.514C57.4548 120.514 57.9222 120.321 58.2677 119.978L119.975 58.263C120.319 57.9175 120.512 57.4501 120.512 56.9629C120.512 56.4757 120.319 56.0084 119.975 55.6629L112.02 47.7148C109.374 50.1497 105.907 51.4972 102.311 51.4885C98.4858 51.4834 94.8182 49.9612 92.1132 47.2558C89.4082 44.5504 87.8867 40.8826 87.8823 37.0569C87.8724 33.4599 89.2191 29.9915 91.6536 27.3436L83.7007 19.3907C83.5303 19.2198 83.3279 19.0843 83.105 18.9918C82.8821 18.8993 82.6432 18.8517 82.4018 18.8517C82.1605 18.8517 81.9216 18.8993 81.6987 18.9918C81.4758 19.0843 81.2734 19.2198 81.103 19.3907L19.3882 81.1102C19.0443 81.455 18.8512 81.9221 18.8512 82.409C18.8512 82.896 19.0443 83.3631 19.3882 83.7079L27.3411 91.6608C29.9871 89.2259 33.4539 87.8783 37.0497 87.8871C40.8758 87.8915 44.544 89.4134 47.2495 92.1189C49.9549 94.8244 51.4768 98.4925 51.4812 102.319C51.4907 105.912 50.1459 109.377 47.7147 112.022Z" fill="#172B4D"/>
<path d="M46.3835 68.7524L39.2132 61.5821C38.8872 61.2561 38.3585 61.2561 38.0325 61.5821C37.7064 61.9082 37.7064 62.4368 38.0325 62.7628L45.2028 69.9331C45.5288 70.2591 46.0574 70.2591 46.3835 69.9331C46.7095 69.6071 46.7095 69.0784 46.3835 68.7524Z" fill="#172B4D"/>
<path d="M77.3644 99.7338L70.1942 92.5636C69.8681 92.2375 69.3395 92.2375 69.0134 92.5636C68.6874 92.8896 68.6874 93.4182 69.0134 93.7443L76.1837 100.915C76.5097 101.241 77.0384 101.241 77.3644 100.915C77.6904 100.589 77.6904 100.06 77.3644 99.7338Z" fill="#172B4D"/>
<path d="M61.8859 84.2551L54.7156 77.0848C54.3896 76.7588 53.861 76.7588 53.5349 77.0848C53.2089 77.4109 53.2089 77.9395 53.5349 78.2655L60.7052 85.4358C61.0313 85.7618 61.5599 85.7618 61.8859 85.4358C62.212 85.1097 62.212 84.5811 61.8859 84.2551Z" fill="#172B4D"/>
<path d="M65.552 53.3509C71.4944 47.4086 71.4944 37.7741 65.552 31.8317C59.6097 25.8893 49.9752 25.8893 44.0328 31.8317C38.0904 37.7741 38.0904 47.4086 44.0328 53.3509C49.9752 59.2933 59.6097 59.2933 65.552 53.3509Z" fill="#E6E8FE"/>
<path d="M54.7924 58.6446C51.6175 58.6432 48.5144 57.7005 45.8754 55.9356C43.2363 54.1707 41.1798 51.663 39.9658 48.7295C38.7518 45.7959 38.435 42.5683 39.0552 39.4547C39.6754 36.341 41.205 33.4812 43.4504 31.2368C45.6958 28.9923 48.5563 27.4641 51.6702 26.8452C54.7841 26.2264 58.0116 26.5447 60.9446 27.76C63.8776 28.9753 66.3845 31.0329 68.1481 33.6728C69.9118 36.3126 70.8532 39.4161 70.8532 42.591C70.8481 46.8483 69.1542 50.9298 66.1431 53.9396C63.132 56.9493 59.0497 58.6415 54.7924 58.6446ZM54.7924 28.2095C51.9477 28.2109 49.1673 29.0557 46.8028 30.6372C44.4383 32.2187 42.5958 34.4658 41.5083 37.0944C40.4207 39.723 40.1371 42.615 40.6931 45.4048C41.2491 48.1946 42.6198 50.7568 44.6319 52.7677C46.6441 54.7785 49.2073 56.1475 51.9974 56.7017C54.7876 57.2558 57.6794 56.9702 60.3073 55.881C62.9351 54.7917 65.181 52.9477 66.7609 50.5821C68.3409 48.2165 69.1839 45.4356 69.1834 42.591C69.179 38.7765 67.6611 35.1196 64.9629 32.4232C62.2647 29.7268 58.6069 28.2113 54.7924 28.2095Z" fill="#172B4D"/>
<path d="M61.0772 47.1055L50.9657 37.6035C50.6067 37.2661 50.0422 37.2837 49.7048 37.6427C49.3675 38.0017 49.385 38.5662 49.744 38.9036L59.8555 48.4055C60.2145 48.7429 60.7791 48.7254 61.1164 48.3663C61.4538 48.0073 61.4362 47.4428 61.0772 47.1055Z" fill="#0517F8"/>
<path d="M59.7114 37.0961L49.9264 46.7995C49.5579 47.1648 49.5555 47.7597 49.9208 48.1281C50.2862 48.4965 50.881 48.499 51.2494 48.1337L61.0345 38.4303C61.4029 38.0649 61.4054 37.4701 61.0401 37.1016C60.6747 36.7332 60.0798 36.7307 59.7114 37.0961Z" fill="#0517F8"/>
</g>
<defs>
<clipPath id="clip0_390_4713">
<rect width="105" height="105" fill="white" transform="translate(17.1819 17.1818)"/>
</clipPath>
</defs>
</svg>
