<svg width="128" height="141" viewBox="0 0 128 141" fill="none" xmlns="http://www.w3.org/2000/svg">
<path d="M52.401 115.407C52.4695 115.978 52.5362 116.549 52.6047 117.12C42.0638 96.7095 31.5229 76.3004 20.9819 55.8925C20.8442 55.6259 20.7604 55.3347 20.7353 55.0357C20.7102 54.7367 20.7442 54.4356 20.8354 54.1497C20.9266 53.8639 21.0733 53.5988 21.267 53.3696C21.4607 53.1404 21.6976 52.9516 21.9643 52.814L32.7895 47.2319C39.3261 69.9562 45.8632 92.681 52.401 115.407Z" fill="#A2AAB8"/>
<path d="M54.5961 117.727C53.9562 117.726 53.3339 117.517 52.8228 117.132C52.3117 116.746 51.9392 116.206 51.7613 115.591L30.1033 40.3019C29.888 39.5498 29.9797 38.7431 30.3584 38.0586C30.7371 37.3741 31.3717 36.8676 32.1232 36.6503L81.7106 22.3868C82.4627 22.1715 83.2694 22.2633 83.954 22.6419C84.6385 23.0206 85.1449 23.6553 85.3622 24.4068L107.02 99.6941C107.236 100.446 107.144 101.253 106.765 101.938C106.387 102.623 105.752 103.13 105 103.348L55.4129 117.611C55.1475 117.688 54.8725 117.727 54.5961 117.727ZM82.5236 23.6033C82.3729 23.6035 82.2229 23.6247 82.0781 23.6662L32.4907 37.9316C32.0809 38.054 31.7358 38.3327 31.5299 38.7075C31.324 39.0823 31.2738 39.523 31.3902 39.9345L53.0407 115.224C53.161 115.635 53.4391 115.982 53.8143 116.189C54.1894 116.397 54.6313 116.447 55.0435 116.33L104.631 102.066C105.043 101.946 105.39 101.668 105.598 101.293C105.805 100.918 105.856 100.476 105.739 100.063L84.0809 24.7742C84.0224 24.5701 83.9239 24.3797 83.7912 24.214C83.6586 24.0483 83.4943 23.9106 83.3079 23.8089C83.068 23.6753 82.7982 23.6045 82.5236 23.6033Z" fill="#172B4D"/>
<path d="M93.7981 81.8285L55.6566 93.8227L93.7981 81.8285Z" fill="white"/>
<path d="M55.6566 94.4909C55.4973 94.4911 55.3431 94.4342 55.2222 94.3305C55.1012 94.2268 55.0214 94.0832 54.9972 93.9257C54.9731 93.7682 55.0061 93.6073 55.0904 93.4721C55.1747 93.3368 55.3046 93.2363 55.4567 93.1887L93.5982 81.1945C93.7668 81.1415 93.9496 81.1576 94.1064 81.2394C94.2631 81.3212 94.381 81.4618 94.434 81.6305C94.487 81.7991 94.4708 81.9819 94.3891 82.1387C94.3073 82.2954 94.1666 82.4132 93.998 82.4663L55.8565 94.4605C55.7918 94.4808 55.7244 94.4911 55.6566 94.4909Z" fill="#172B4D"/>
<path d="M79.8144 36.8236L41.671 48.8197L79.8144 36.8236Z" fill="white"/>
<path d="M41.671 49.4956C41.5124 49.4935 41.3598 49.435 41.2405 49.3305C41.1213 49.2261 41.0432 49.0825 41.0202 48.9257C40.9973 48.7688 41.031 48.6089 41.1154 48.4746C41.1998 48.3404 41.3293 48.2407 41.4806 48.1933L79.624 36.1991C79.7926 36.1461 79.9754 36.1623 80.1322 36.244C80.2889 36.3258 80.4067 36.4665 80.4598 36.6351C80.5128 36.8038 80.4966 36.9866 80.4149 37.1433C80.3331 37.3 80.1924 37.4179 80.0238 37.4709L41.8804 49.4651C41.8126 49.4864 41.7419 49.4967 41.671 49.4956Z" fill="#172B4D"/>
<path d="M82.0324 44.4066L43.8909 56.4008L82.0324 44.4066Z" fill="white"/>
<path d="M43.8833 57.069C43.7247 57.067 43.5721 57.0085 43.4529 56.904C43.3336 56.7996 43.2555 56.656 43.2325 56.4991C43.2096 56.3423 43.2434 56.1824 43.3277 56.0481C43.4121 55.9139 43.5416 55.8142 43.6929 55.7668L81.8344 43.7726C81.9179 43.7464 82.0058 43.7368 82.0929 43.7445C82.1801 43.7522 82.265 43.777 82.3426 43.8175C82.4202 43.858 82.4891 43.9134 82.5453 43.9805C82.6015 44.0476 82.6439 44.1251 82.6702 44.2086C82.6964 44.2921 82.706 44.38 82.6983 44.4672C82.6906 44.5544 82.6658 44.6392 82.6253 44.7168C82.5848 44.7944 82.5294 44.8633 82.4623 44.9195C82.3952 44.9757 82.3177 45.0181 82.2342 45.0444L44.0927 57.0386C44.0249 57.0597 43.9542 57.07 43.8833 57.069Z" fill="#172B4D"/>
<path d="M69.2995 57.6973L45.9794 65.0023L69.2995 57.6973Z" fill="white"/>
<path d="M45.9793 65.6781C45.8208 65.676 45.6682 65.6175 45.5489 65.5131C45.4297 65.4086 45.3515 65.2651 45.3286 65.1082C45.3057 64.9513 45.3394 64.7914 45.4238 64.6572C45.5082 64.5229 45.6376 64.4232 45.789 64.3759L69.1072 57.0708C69.1911 57.0433 69.2796 57.0327 69.3676 57.0397C69.4556 57.0466 69.5413 57.071 69.6199 57.1114C69.6984 57.1518 69.768 57.2074 69.8249 57.275C69.8817 57.3425 69.9246 57.4207 69.9509 57.505C69.9773 57.5892 69.9866 57.6779 69.9785 57.7658C69.9703 57.8537 69.9447 57.9391 69.9032 58.017C69.8617 58.095 69.8052 58.1639 69.7368 58.2198C69.6685 58.2757 69.5897 58.3174 69.5051 58.3426L46.1792 65.6381C46.1151 65.6617 46.0476 65.6751 45.9793 65.6781Z" fill="#172B4D"/>
<path d="M42.4486 93.6915C49.0022 92.2638 53.1575 85.7937 51.7298 79.2401C50.3021 72.6866 43.832 68.5313 37.2784 69.959C30.7248 71.3867 26.5695 77.8568 27.9972 84.4103C29.4249 90.9639 35.895 95.1192 42.4486 93.6915Z" fill="#E6E8FE"/>
<path d="M39.8585 94.6413C37.3243 94.6417 34.8469 93.8905 32.7396 92.4829C30.6322 91.0752 28.9897 89.0742 28.0196 86.733C27.0496 84.3918 26.7956 81.8155 27.2897 79.33C27.7839 76.8444 29.0041 74.5612 30.7959 72.7691C32.5877 70.977 34.8707 69.7565 37.3562 69.262C39.8417 68.7674 42.4181 69.021 44.7594 69.9908C47.1008 70.9605 49.102 72.6027 50.51 74.7098C51.9179 76.8169 52.6694 79.2942 52.6694 81.8285C52.6654 85.2251 51.3145 88.4814 48.9129 90.8834C46.5113 93.2853 43.2551 94.6368 39.8585 94.6413ZM39.8585 70.3502C37.5878 70.3498 35.368 71.0229 33.4798 72.2842C31.5916 73.5455 30.1198 75.3384 29.2507 77.4362C28.3815 79.534 28.154 81.8425 28.5969 84.0696C29.0398 86.2967 30.1333 88.3424 31.7389 89.9481C33.3446 91.5537 35.3903 92.6471 37.6174 93.09C39.8445 93.5329 42.1529 93.3054 44.2507 92.4363C46.3485 91.5671 48.1415 90.0954 49.4028 88.2072C50.6641 86.319 51.3371 84.0992 51.3368 81.8285C51.3327 78.7855 50.1221 75.8683 47.9704 73.7166C45.8187 71.5649 42.9015 70.3543 39.8585 70.3502Z" fill="#172B4D"/>
<path d="M45.7987 85.9671L36.2578 77.0013C35.8593 76.6269 35.2327 76.6463 34.8583 77.0448C34.4838 77.4433 34.5033 78.0699 34.9017 78.4444L44.4426 87.4101C44.8411 87.7846 45.4677 87.7651 45.8422 87.3666C46.2166 86.9682 46.1972 86.3416 45.7987 85.9671Z" fill="#0517F8"/>
<path d="M44.3202 76.5172L35.0765 85.6838C34.6736 86.0833 34.6709 86.7337 35.0704 87.1365C35.4699 87.5394 36.1203 87.5421 36.5232 87.1426L45.7669 77.976C46.1697 77.5765 46.1724 76.9261 45.7729 76.5233C45.3735 76.1204 44.723 76.1177 44.3202 76.5172Z" fill="#0517F8"/>
<path d="M92.9109 91.8597L88.3645 100.667C87.6182 97.5052 86.8726 94.3442 86.1275 91.1838C88.2725 69.607 90.4194 48.0302 92.5682 26.4533C92.7606 25.6428 93.2403 24.9295 93.9186 24.4457C94.5968 23.962 95.4274 23.7406 96.2564 23.8227C97.0854 23.9047 97.8566 24.2847 98.4268 24.892C98.997 25.4993 99.3276 26.2928 99.3573 27.1254L92.9109 91.8597Z" fill="#CDD1FE"/>
<path d="M88.1247 102.573L85.4593 91.2296L91.9323 26.2839C92.1679 25.3231 92.7422 24.4795 93.5498 23.9081C94.3574 23.3367 95.344 23.076 96.3285 23.1737C97.3129 23.2714 98.229 23.721 98.9086 24.44C99.5881 25.1589 99.9854 26.099 100.027 27.0874V27.1388L93.5677 92.0597L88.1247 102.573ZM86.792 91.1401L88.5892 98.7555L92.2522 91.6637L98.6833 27.1121C98.6493 26.4493 98.3788 25.8206 97.9209 25.3403C97.4629 24.8599 96.8479 24.5596 96.1875 24.4939C95.5271 24.4283 94.865 24.6016 94.3214 24.9824C93.7779 25.3633 93.3889 25.9264 93.225 26.5695L86.792 91.1401Z" fill="#172B4D"/>
<path d="M88.3645 100.667C87.6182 97.5053 86.8726 94.3443 86.1275 91.1839C86.4608 90.5262 86.9851 89.9846 87.6317 89.6303C88.2783 89.2759 89.017 89.1255 89.7507 89.1986C90.4844 89.2717 91.1788 89.5649 91.7428 90.0399C92.3068 90.5148 92.714 91.1492 92.9109 91.8598L88.3645 100.667Z" fill="white"/>
<path d="M88.1246 102.573L85.4212 91.1002L85.5335 90.8812C85.9275 90.1039 86.5473 89.4639 87.3116 89.0451C88.0758 88.6263 88.9489 88.4484 89.8161 88.5347C90.6833 88.6209 91.5041 88.9674 92.1709 89.5285C92.8377 90.0896 93.3193 90.8392 93.5524 91.6789L93.6248 91.9321L88.1246 102.573ZM86.83 91.2829L88.5929 98.7593L92.1855 91.8008C91.9917 91.2731 91.6529 90.8108 91.2079 90.4671C90.763 90.1235 90.2301 89.9125 89.6705 89.8584C89.111 89.8043 88.5475 89.9093 88.045 90.1613C87.5424 90.4133 87.1213 90.8021 86.83 91.2829Z" fill="#172B4D"/>
<path d="M97.9047 35.3653C97.7533 34.7781 97.4257 34.2512 96.966 33.8556C96.5063 33.46 95.9365 33.2146 95.3333 33.1524C94.73 33.0902 94.1221 33.2142 93.5914 33.5077C93.0607 33.8012 92.6325 34.2502 92.3645 34.7942L91.1708 34.2002C91.5602 33.4141 92.1806 32.7658 92.9488 32.3421C93.7169 31.9183 94.5962 31.7394 95.4689 31.8293C96.3416 31.9192 97.1659 32.2735 97.8316 32.8449C98.4973 33.4163 98.9725 34.1775 99.1936 35.0265L97.9047 35.3653Z" fill="#172B4D"/>
<path d="M97.4763 40.4428C97.3244 39.8557 96.9966 39.3291 96.5367 38.9337C96.0769 38.5383 95.5071 38.293 94.9038 38.2309C94.3005 38.1687 93.6927 38.2926 93.1619 38.5859C92.6311 38.8792 92.2027 39.3278 91.9343 39.8716L90.7424 39.2776C91.1318 38.4915 91.752 37.8431 92.52 37.4193C93.288 36.9954 94.1672 36.8163 95.0399 36.906C95.9125 36.9956 96.7369 37.3498 97.4027 37.921C98.0685 38.4922 98.5439 39.2531 98.7652 40.102L97.4763 40.4428Z" fill="#172B4D"/>
</svg>
