<svg width="140" height="140" viewBox="0 0 140 140" fill="none" xmlns="http://www.w3.org/2000/svg">
<g clip-path="url(#clip0_252_9271)">
<path d="M119.658 42.7576H19.7055C18.2457 42.7576 17.0623 43.9371 17.0623 45.3922V103.927C17.0623 105.382 18.2457 106.562 19.7055 106.562H119.658C121.118 106.562 122.301 105.382 122.301 103.927V45.3922C122.301 43.9371 121.118 42.7576 119.658 42.7576Z" fill="#E8EAED"/>
<path d="M119.658 107.328H19.7055C18.8002 107.328 17.9322 106.969 17.292 106.331C16.6519 105.693 16.292 104.828 16.2914 103.925V45.4032C16.292 44.5008 16.6519 43.6356 17.292 42.9975C17.9322 42.3594 18.8002 42.0007 19.7055 42.0001H119.658C120.563 42.0007 121.431 42.3594 122.072 42.9975C122.712 43.6356 123.072 44.5008 123.072 45.4032V103.936C123.069 104.837 122.708 105.699 122.068 106.335C121.428 106.971 120.562 107.328 119.658 107.328ZM19.7055 43.526C19.2091 43.5266 18.7333 43.7234 18.3823 44.0733C18.0313 44.4231 17.8338 44.8975 17.8332 45.3922V103.925C17.8338 104.42 18.0313 104.894 18.3823 105.244C18.7333 105.594 19.2091 105.791 19.7055 105.791H119.658C120.154 105.791 120.63 105.594 120.981 105.244C121.332 104.894 121.53 104.42 121.53 103.925V45.4032C121.53 44.9084 121.332 44.4341 120.981 44.0842C120.63 43.7344 120.154 43.5376 119.658 43.537L19.7055 43.526Z" fill="#172B4D"/>
<path d="M25.6175 50.6396C26.4203 50.6396 27.0712 49.9908 27.0712 49.1905C27.0712 48.3902 26.4203 47.7415 25.6175 47.7415C24.8146 47.7415 24.1637 48.3902 24.1637 49.1905C24.1637 49.9908 24.8146 50.6396 25.6175 50.6396Z" fill="#0517F8"/>
<path d="M30.6615 50.6396C31.4644 50.6396 32.1153 49.9908 32.1153 49.1905C32.1153 48.3902 31.4644 47.7415 30.6615 47.7415C29.8586 47.7415 29.2078 48.3902 29.2078 49.1905C29.2078 49.9908 29.8586 50.6396 30.6615 50.6396Z" fill="#0517F8"/>
<path d="M36.0581 50.6396C36.861 50.6396 37.5119 49.9908 37.5119 49.1905C37.5119 48.3902 36.861 47.7415 36.0581 47.7415C35.2552 47.7415 34.6044 48.3902 34.6044 49.1905C34.6044 49.9908 35.2552 50.6396 36.0581 50.6396Z" fill="#0517F8"/>
<path d="M127.273 119.637H12.0909V113.662C12.0915 112.76 12.4514 111.895 13.0916 111.257C13.7317 110.619 14.5998 110.26 15.5051 110.259H123.859C124.764 110.26 125.632 110.619 126.272 111.257C126.912 111.895 127.272 112.76 127.273 113.662V119.637ZM13.6328 118.1H125.731V113.662C125.73 113.168 125.533 112.693 125.182 112.344C124.831 111.994 124.355 111.797 123.859 111.796H15.5051C15.0087 111.797 14.5328 111.994 14.1818 112.344C13.8308 112.693 13.6334 113.168 13.6328 113.662V118.1Z" fill="#172B4D"/>
<path d="M70.021 81.9501C66.485 81.9478 63.0895 80.5697 60.5577 78.1092C58.0258 75.6487 56.5577 72.3003 56.4658 68.7769C56.3974 66.1032 57.126 63.4693 58.5594 61.2084C59.9928 58.9474 62.0667 57.161 64.5187 56.0749C66.9708 54.9888 69.6909 54.6519 72.335 55.1068C74.9792 55.5617 77.4286 56.788 79.3735 58.6305C81.3185 60.473 82.6716 62.8491 83.2617 65.4581C83.8518 68.0672 83.6525 70.7921 82.6889 73.2882C81.7253 75.7844 80.0407 77.9396 77.8482 79.4814C75.6556 81.0232 73.0536 81.8823 70.3713 81.9501H70.021ZM57.7874 68.7308C57.8492 71.1442 58.6275 73.4851 60.024 75.4577C61.4204 77.4302 63.3723 78.9457 65.6328 79.8126C67.8933 80.6795 70.361 80.8587 72.7237 80.3278C75.0865 79.7968 77.2382 78.5795 78.9069 76.8296C80.5755 75.0798 81.6862 72.8761 82.0984 70.4971C82.5106 68.1181 82.2059 65.6707 81.2227 63.4643C80.2396 61.258 78.6221 59.3917 76.575 58.1016C74.5278 56.8114 72.1428 56.1553 69.7215 56.2162C68.1099 56.2453 66.5203 56.5935 65.0449 57.2404C63.5696 57.8873 62.238 58.8201 61.1276 59.9846C60.0171 61.1491 59.15 62.522 58.5766 64.0234C58.0032 65.5249 57.7349 67.125 57.7874 68.7308Z" fill="#172B4D"/>
<path d="M70.032 81.9523C65.1245 81.9523 61.0011 74.7071 60.8535 68.654C60.7038 62.5811 64.4879 55.1009 69.4153 54.9209C71.0144 54.8638 72.6598 55.5796 74.1598 56.9803C76.9176 59.5645 78.8405 64.0719 78.9462 68.1995C79.052 72.3271 77.3603 76.9333 74.7347 79.6536C73.3074 81.1356 71.7039 81.9304 70.1091 81.9523H70.032ZM62.1751 68.621C62.2972 71.5287 63.1795 74.354 64.7346 76.817C66.3029 79.2694 68.2589 80.6636 70.0893 80.635C71.3338 80.6175 72.6136 79.9632 73.792 78.7403C76.1422 76.2966 77.7304 71.9692 77.6268 68.2368C77.5233 64.5044 75.7325 60.2648 73.2545 57.9419C72.0166 56.7827 70.7083 56.1855 69.4638 56.2404C67.6289 56.3063 65.7501 57.7927 64.3095 60.3175C62.8851 62.8538 62.1494 65.7167 62.1751 68.6232V68.621Z" fill="#172B4D"/>
<path d="M61.2918 78.0992L60.5649 77.0014C63.2704 75.2277 66.4126 74.229 69.6487 74.1143C73.1787 74.0092 76.6608 74.9489 79.6554 76.8148L78.9528 77.9301C76.1835 76.2066 72.965 75.3374 69.7016 75.4316C66.706 75.5356 63.7968 76.4584 61.2918 78.0992Z" fill="#172B4D"/>
<path d="M69.2171 62.7612C66.0756 62.7568 62.9919 61.9187 60.2831 60.3329L60.9439 59.1956C63.526 60.7087 66.4755 61.4857 69.4704 61.4416C72.7441 61.3785 75.9254 60.3485 78.6115 58.4821L79.3714 59.5601C76.4739 61.5732 73.0434 62.6862 69.5123 62.759L69.2171 62.7612Z" fill="#172B4D"/>
<path d="M70.0984 55.567L68.7772 55.6001L69.4257 81.3127L70.7469 81.2796L70.0984 55.567Z" fill="#172B4D"/>
<path d="M82.9188 67.4357L57.1118 68.0868L57.1453 69.4037L82.9523 68.7526L82.9188 67.4357Z" fill="#172B4D"/>
<path d="M39.1991 91.47L101.167 91.5427L39.1991 91.47Z" fill="white"/>
<path d="M101.167 92.3109L39.1992 92.2384C38.9947 92.2384 38.7986 92.1575 38.654 92.0134C38.5094 91.8692 38.4282 91.6738 38.4282 91.47C38.4282 91.2662 38.5094 91.0707 38.654 90.9266C38.7986 90.7825 38.9947 90.7015 39.1992 90.7015L101.167 90.774C101.371 90.774 101.567 90.855 101.712 90.9991C101.856 91.1432 101.938 91.3386 101.938 91.5424C101.938 91.7462 101.856 91.9417 101.712 92.0858C101.567 92.2299 101.371 92.3109 101.167 92.3109Z" fill="#172B4D"/>
<path d="M91.1498 78.9931C88.9567 75.8748 87.6072 72.2424 87.2322 68.4486C86.5246 60.953 89.9703 55.4415 91.077 53.8234L94.6529 56.3234C95.0041 50.8628 96.7416 45.5818 99.7014 40.9795C100.848 42.1553 101.993 43.3362 103.138 44.5222C106.028 30.1307 113.625 20.5915 121.079 20.4989C122.578 20.4813 124.75 20.8296 127.395 22.6462" fill="#CDD1FE"/>
<path d="M90.517 79.434C88.2464 76.2034 86.8505 72.4402 86.465 68.5103C85.8036 61.4116 88.6696 55.9839 90.4333 53.3803L90.8742 52.7343L93.9937 54.9147C94.5319 49.7968 96.2634 44.8767 99.0488 40.5496L99.5735 39.7317L102.682 42.9372C105.79 29.2952 113.231 19.8243 121.068 19.7273C123.304 19.6987 125.581 20.4681 127.836 22.0091L126.954 23.2833C124.97 21.9253 122.986 21.2441 121.081 21.2705C113.824 21.3609 106.593 31.1912 103.886 44.6634L103.597 46.1007L99.838 42.2141C97.262 46.5117 95.7503 51.3628 95.4289 56.3631L95.3407 57.7299L91.2931 54.9014C89.6462 57.5249 87.4328 62.2934 88.006 68.367C88.3675 72.0309 89.6707 75.5389 91.7891 78.55L90.517 79.434Z" fill="#172B4D"/>
<path d="M90.5787 78.6139C94.3208 79.368 98.1943 79.1402 101.822 77.9525C108.972 75.5892 112.625 70.2211 113.67 68.5544L109.944 66.2837C112.76 64.8196 115.345 62.9492 117.616 60.7325C119.243 59.145 120.696 57.3891 121.952 55.4945L117.323 53.7727C129.419 45.4614 135.036 34.5928 132.093 27.6947C131.496 26.2948 130.222 24.2974 127.17 22.5117" fill="#CDD1FE"/>
<path d="M94.9879 79.8221C93.4552 79.8257 91.9259 79.678 90.4222 79.3812L90.7243 77.8688C94.3329 78.5981 98.0688 78.3809 101.569 77.2383C107.36 75.3225 110.828 71.3807 112.576 68.8168L108.359 66.2441L109.573 65.6114C114.024 63.3077 117.858 59.9717 120.755 55.8825L115.665 53.9866L116.888 53.1466C128.193 45.3799 134.293 34.8067 131.39 28.0144C130.59 26.1361 129.04 24.5135 126.787 23.1952L127.567 21.8724C130.111 23.3627 131.877 25.2278 132.81 27.417C134.353 31.0369 133.72 35.7172 131.028 40.5982C128.471 45.2278 124.318 49.7031 118.965 53.5854L123.132 55.1286L122.594 55.9399C119.75 60.2277 115.942 63.7899 111.474 66.3411L114.723 68.3252L114.309 68.9866C112.638 71.6563 108.822 76.4689 102.051 78.7066C99.7716 79.4533 97.3869 79.8299 94.9879 79.8221Z" fill="#172B4D"/>
<path d="M119 35.1594L82.812 91.4204L119 35.1594Z" fill="white"/>
<path d="M82.812 92.1919C82.6736 92.1912 82.5378 92.1534 82.419 92.0824C82.3001 92.0114 82.2025 91.9097 82.1363 91.7881C82.0701 91.6665 82.0377 91.5294 82.0426 91.391C82.0474 91.2527 82.0893 91.1181 82.1639 91.0015L118.357 34.7449C118.469 34.5772 118.643 34.4602 118.84 34.4191C119.038 34.378 119.244 34.4161 119.414 34.5252C119.584 34.6343 119.705 34.8057 119.75 35.0026C119.795 35.1994 119.761 35.4061 119.655 35.5783L83.4624 91.837C83.3923 91.9458 83.2961 92.0354 83.1824 92.0974C83.0688 92.1594 82.9415 92.1919 82.812 92.1919Z" fill="#172B4D"/>
</g>
<defs>
<clipPath id="clip0_252_9271">
<rect width="127.273" height="100.333" fill="white" transform="translate(6.36365 19.7273)"/>
</clipPath>
</defs>
</svg>
