<svg xmlns="http://www.w3.org/2000/svg" width="131.428" height="97.293" viewBox="0 0 131.428 97.293">
  <g id="ilustracija" transform="translate(-6.364 -23.545)">
    <g id="laptop">
      <path id="Vector" d="M79.252,80.143l.075-.08,8.558,8-.075.08Z" fill="#0c266d"/>
      <path id="Vector-2" data-name="Vector" d="M2.643,0H102.6a2.639,2.639,0,0,1,2.643,2.634V61.166A2.639,2.639,0,0,1,102.6,63.8H2.643A2.639,2.639,0,0,1,0,61.166V2.634A2.639,2.639,0,0,1,2.643,0Z" transform="translate(11.335 43.964)" fill="#e8eaed"/>
      <path id="Vector-3" data-name="Vector" d="M103.367,65.329H3.414A3.411,3.411,0,0,1,0,61.926V3.4A3.411,3.411,0,0,1,3.414,0h99.953a3.411,3.411,0,0,1,3.414,3.4v58.53a3.411,3.411,0,0,1-3.414,3.4ZM3.414,1.53A1.871,1.871,0,0,0,1.542,3.4v58.53a1.871,1.871,0,0,0,1.872,1.866h99.953a1.871,1.871,0,0,0,1.872-1.866V3.4a1.871,1.871,0,0,0-1.872-1.866Z" transform="translate(10.564 43.202)" fill="#172b4d"/>
      <path id="Vector-4" data-name="Vector" d="M9.86,46.126a3.108,3.108,0,0,1-1.947-.711,3.824,3.824,0,0,1-1.344-2.325L.06,6.461A3.906,3.906,0,0,1,.523,3.827,3.123,3.123,0,0,1,2.6,2.358L15.917,0,29.133,10.1l5.009,28.1a3.631,3.631,0,0,1-.22,2.683,2.8,2.8,0,0,1-2.35,1.469l-21.2,3.732a2.9,2.9,0,0,1-.515.042Zm5.773-44.96L2.794,3.44a2,2,0,0,0-1.322.951A2.846,2.846,0,0,0,1.15,6.277L7.653,42.9a2.725,2.725,0,0,0,.952,1.66A1.965,1.965,0,0,0,10.179,45l21.289-3.759h.048a1.712,1.712,0,0,0,1.436-.9,2.557,2.557,0,0,0,.137-1.862l-.02-.072L28.124,10.7Z" transform="translate(41.456 55.512)" fill="#172b4d"/>
      <path id="Vector-5" data-name="Vector" d="M2.908,1.449A1.454,1.454,0,1,1,1.454,0,1.451,1.451,0,0,1,2.908,1.449Z" transform="translate(18.436 48.948)" fill="#0517f8"/>
      <path id="Vector-6" data-name="Vector" d="M2.908,1.449A1.454,1.454,0,1,1,1.454,0,1.451,1.451,0,0,1,2.908,1.449Z" transform="translate(23.481 48.948)" fill="#0517f8"/>
      <path id="Vector-7" data-name="Vector" d="M2.908,1.449A1.454,1.454,0,1,1,1.454,0,1.451,1.451,0,0,1,2.908,1.449Z" transform="translate(28.877 48.948)" fill="#0517f8"/>
      <path id="Vector-8" data-name="Vector" d="M34.5,41.008l-24.377,4.3a3.06,3.06,0,0,1-3.553-2.476L.047,6.2A3.06,3.06,0,0,1,2.534,2.656L17.536,0,31.985,9.53l4.982,27.923a2.776,2.776,0,0,1-.26,2.305A2.881,2.881,0,0,1,34.5,41.008Z" transform="translate(45.656 57.628)" fill="#fff"/>
      <path id="Vector-9" data-name="Vector" d="M10.118,46.468a3.622,3.622,0,0,1-3.555-2.977L.054,6.865A3.608,3.608,0,0,1,2.986,2.694L18.208,0,33.041,9.783l5.015,28.108a3.327,3.327,0,0,1-.33,2.733,3.374,3.374,0,0,1-2.632,1.491L10.757,46.409a3.71,3.71,0,0,1-.639.059Zm7.85-45.32L3.177,3.767a2.5,2.5,0,0,0-2.037,2.9L7.649,43.3a2.514,2.514,0,0,0,2.916,2.031l24.417-4.31h.044a2.279,2.279,0,0,0,1.762-.981,2.189,2.189,0,0,0,.2-1.833l-.02-.083L32.039,10.428Z" transform="translate(45.108 57.058)" fill="#172b4d"/>
      <path id="Vector-10" data-name="Vector" d="M14.269,9.309a74.672,74.672,0,0,1-8.69,1.218,3.69,3.69,0,0,1-2.339-.516A3.107,3.107,0,0,1,2.264,8.9,3.067,3.067,0,0,1,2,8.193c-.02-.081-.031-.145-.037-.176V8C1.952,7.936,1.383,5.614,0,0" transform="translate(62.911 58.105)" fill="#cdd1fe"/>
      <path id="Vector-11" data-name="Vector" d="M5.734,11.225a3.862,3.862,0,0,1-2.262-.632A3.644,3.644,0,0,1,2,8.455c-.022-.094-.037-.171-.044-.209C1.936,8.138,1.579,6.67,0,.263L1.07,0C3.02,7.917,3.033,7.989,3.053,8.033a1.047,1.047,0,0,1,.033.162,2.555,2.555,0,0,0,1.029,1.5,3.221,3.221,0,0,0,2,.417A74.886,74.886,0,0,0,14.727,8.9l.2,1.08a77.812,77.812,0,0,1-8.767,1.225C6.02,11.219,5.879,11.225,5.734,11.225Z" transform="translate(62.364 57.966)" fill="#172b4d"/>
      <path id="Vector-12" data-name="Vector" d="M115.182,9.377H0V3.4A3.411,3.411,0,0,1,3.414,0H111.768a3.411,3.411,0,0,1,3.414,3.4ZM1.542,7.84h112.1V3.4a1.871,1.871,0,0,0-1.872-1.866H3.414A1.871,1.871,0,0,0,1.542,3.4Z" transform="translate(6.364 111.462)" fill="#172b4d"/>
      <circle id="Ellipse_661" data-name="Ellipse 661" cx="10" cy="10" r="10" transform="translate(55 74)" fill="#e6e8fe"/>
      <path id="Vector-13" data-name="Vector" d="M10.793,21.515A10.749,10.749,0,0,1,3.161,3.151a10.773,10.773,0,1,1,15.26,15.21,10.822,10.822,0,0,1-7.629,3.154Zm0-20.417A9.658,9.658,0,0,0,8.9,20.232a9.656,9.656,0,0,0,8.741-16.3A9.719,9.719,0,0,0,10.793,1.1Z" transform="translate(54.192 73.35)" fill="#172b4d"/>
      <path id="Vector-14" data-name="Vector" d="M60.4,81.966l.925-1.428,8.682,5.585-.925,1.428Z" fill="#0517f8"/>
      <path id="Vector-15" data-name="Vector" d="M61.624,87.582l5.908-8.45L68.788,80l-5.908,8.45Z" fill="#0517f8"/>
    </g>
    <g id="loup">
      <path id="Vector-16" data-name="Vector" d="M6.045,2a.6.6,0,0,1-.087,0L.576,1.269A.636.636,0,1,1,.747.01L6.129.743a.637.637,0,0,1-.085,1.271Z" transform="translate(76.207 36.479)" fill="#172b4d"/>
      <path id="Vector-17" data-name="Vector" d="M4.412,5.226a.636.636,0,0,1-.46-.2L.2,1.1A.636.636,0,1,1,1.119.223L4.872,4.151a.636.636,0,0,1-.46,1.074Z" transform="translate(80.855 27.345)" fill="#172b4d"/>
      <path id="Vector-18" data-name="Vector" d="M5.448,3.752a.651.651,0,0,1-.29-.07L.328,1.192A.636.636,0,0,1,.911.063L5.74,2.55a.636.636,0,0,1-.292,1.2Z" transform="translate(76.583 30.667)" fill="#172b4d"/>
      <path id="Vector-19" data-name="Vector" d="M4.424,0,21.967,16.645a2.543,2.543,0,0,1,.1,3.6l-.877.926a2.543,2.543,0,0,1-3.6.1L0,4.668Z" transform="translate(114.29 61.192)" fill="#cdd1fe"/>
      <path id="Vector-20" data-name="Vector" d="M20.374,23.747a3.257,3.257,0,0,1-2.255-.9L0,5.738,5.429,0,23.512,17.164a3.291,3.291,0,0,1,.127,4.643l-.877.926a3.259,3.259,0,0,1-2.295,1.021ZM2.1,5.679l17.041,16.1a1.812,1.812,0,0,0,2.543-.068l.875-.926a1.8,1.8,0,0,0-.07-2.543l-17-16.134Z" transform="translate(113.256 60.143)" fill="#172b4d"/>
      <path id="Vector-21" data-name="Vector" d="M8.81,4.3,4.4,8.964a2.543,2.543,0,0,1-3.6.1h0a2.543,2.543,0,0,1-.1-3.6L5.11.8a2.543,2.543,0,0,1,3.6-.1h0a2.543,2.543,0,0,1,.1,3.6Z" transform="translate(109.905 56.889)" fill="#fff"/>
      <path id="Vector-22" data-name="Vector" d="M3.285,11.231A3.282,3.282,0,0,1,.9,5.69L5.31,1.028a3.286,3.286,0,1,1,4.774,4.516l-4.41,4.662a3.272,3.272,0,0,1-2.39,1.026ZM7.7,1.483H7.646a1.784,1.784,0,0,0-1.259.559L1.977,6.7A1.8,1.8,0,1,0,4.592,9.182L9,4.52A1.8,1.8,0,0,0,7.7,1.483Z" transform="translate(109.173 56.155)" fill="#172b4d"/>
      <path id="Vector-23" data-name="Vector" d="M36.34,18.17A18.17,18.17,0,1,1,18.17,0,18.17,18.17,0,0,1,36.34,18.17Z" transform="matrix(0.707, -0.707, 0.707, 0.707, 75.727, 49.242)" fill="#cdd1fe"/>
      <path id="Vector-24" data-name="Vector" d="M18.879,37.794a18.836,18.836,0,1,1,7.479-1.529A18.9,18.9,0,0,1,18.879,37.794Zm0-36.321A17.412,17.412,0,1,0,30.855,6.234h0A17.376,17.376,0,0,0,18.887,1.471Z" transform="translate(82.541 30.35)" fill="#172b4d"/>
      <path id="Vector-25" data-name="Vector" d="M26.975,13.487A13.487,13.487,0,1,1,13.487,0,13.487,13.487,0,0,1,26.975,13.487Z" transform="matrix(0.707, -0.707, 0.707, 0.707, 82.35, 49.127)" fill="#fff"/>
      <path id="Vector-26" data-name="Vector" d="M14.218,28.458A14.229,14.229,0,1,1,24.01,3.895h0a14.229,14.229,0,0,1-9.391,24.557Zm.019-26.977h-.358a12.746,12.746,0,1,0,9.112,3.484h0a12.654,12.654,0,0,0-8.753-3.484Z" transform="translate(87.195 34.9)" fill="#172b4d"/>
    </g>
  </g>
</svg>
