<svg width="20" height="20" viewBox="0 0 20 20" fill="none" xmlns="http://www.w3.org/2000/svg">
<path d="M7.9248 15.0027V15.4295C7.9248 15.9799 8.14356 16.5078 8.53291 16.8968C8.92226 17.2858 9.45027 17.5042 10.0007 17.5037V17.5037C10.5511 17.5039 11.0792 17.2854 11.4685 16.8963C11.8578 16.5071 12.0765 15.9792 12.0765 15.4287V15.0027" stroke="#172B4D" stroke-width="1.2" stroke-linecap="round" stroke-linejoin="round"/>
<path fill-rule="evenodd" clip-rule="evenodd" d="M14.6273 14.5052C15.5726 14.5052 16.3389 13.7389 16.3389 12.7937V12.7937C16.3385 12.3135 16.1478 11.853 15.8087 11.5131L14.6715 10.3768V7.00208C14.6715 4.23951 12.432 2 9.66944 2V2C6.90687 2 4.66736 4.23951 4.66736 7.00208V10.3768L3.53022 11.5131C3.19104 11.853 3.00038 12.3135 3 12.7937V12.7937C3 13.2476 3.18032 13.6829 3.5013 14.0039C3.82228 14.3249 4.25762 14.5052 4.71155 14.5052H14.6273Z" stroke="#172B4D" stroke-width="1.2" stroke-linecap="round" stroke-linejoin="round"/>
<circle cx="15" cy="4" r="3" fill="#EE0064" stroke="#F3F4F6"/>
</svg>
