<svg width="25" height="24" viewBox="0 0 25 24" fill="none" xmlns="http://www.w3.org/2000/svg">
<g clip-path="url(#clip0_495_1357)">
<path d="M23.1782 10.3688C23.0375 10.1776 22.854 10.022 22.6424 9.91458C22.4307 9.80712 22.1968 9.75077 21.9594 9.75005H20.7501V8.25005C20.7501 7.85223 20.592 7.4707 20.3107 7.18939C20.0294 6.90809 19.6479 6.75005 19.2501 6.75005H12.7532L10.1469 4.80005C9.88861 4.60283 9.57194 4.49727 9.24694 4.50005H4.25006C3.85224 4.50005 3.4707 4.65809 3.1894 4.93939C2.9081 5.2207 2.75006 5.60223 2.75006 6.00005V19.5001C2.7488 19.5989 2.76734 19.697 2.80459 19.7885C2.84183 19.8801 2.89703 19.9633 2.96692 20.0332C3.03682 20.1031 3.12 20.1583 3.21156 20.1955C3.30313 20.2328 3.40122 20.2513 3.50006 20.2501H20.0001C20.158 20.2501 20.3119 20.2002 20.4398 20.1076C20.5678 20.0151 20.6632 19.8844 20.7126 19.7344L23.3844 11.7282C23.4587 11.5012 23.4787 11.2601 23.4428 11.024C23.407 10.7879 23.3164 10.5635 23.1782 10.3688ZM9.24694 6.00005L11.8532 7.95005C12.1115 8.14728 12.4282 8.25284 12.7532 8.25005H19.2501V9.75005H7.04381C6.72912 9.74937 6.42218 9.84769 6.16644 10.0311C5.9107 10.2145 5.71912 10.4736 5.61881 10.7719L4.25006 14.8782V6.00005H9.24694Z" fill="#0517F8"/>
</g>
<defs>
<clipPath id="clip0_495_1357">
<rect width="24" height="24" fill="white" transform="translate(0.5)"/>
</clipPath>
</defs>
</svg>
