<svg width="17" height="17" viewBox="0 0 17 17" fill="none" xmlns="http://www.w3.org/2000/svg">
<path d="M14.2666 10.084H13.7666V9.83398C13.7666 9.36985 13.5822 8.92473 13.254 8.59654C12.9258 8.26836 12.4807 8.08398 12.0166 8.08398C11.5525 8.08398 11.1074 8.26836 10.7792 8.59654C10.451 8.92473 10.2666 9.36985 10.2666 9.83398V10.084H9.7666C9.63399 10.084 9.50682 10.1367 9.41305 10.2304C9.31928 10.3242 9.2666 10.4514 9.2666 10.584V13.334C9.2666 13.4666 9.31928 13.5938 9.41305 13.6875C9.50682 13.7813 9.63399 13.834 9.7666 13.834H14.2666C14.3992 13.834 14.5264 13.7813 14.6202 13.6875C14.7139 13.5938 14.7666 13.4666 14.7666 13.334V10.584C14.7666 10.4514 14.7139 10.3242 14.6202 10.2304C14.5264 10.1367 14.3992 10.084 14.2666 10.084ZM11.2666 9.83398C11.2666 9.63507 11.3456 9.4443 11.4863 9.30365C11.6269 9.163 11.8177 9.08398 12.0166 9.08398C12.2155 9.08398 12.4063 9.163 12.5469 9.30365C12.6876 9.4443 12.7666 9.63507 12.7666 9.83398V10.084H11.2666V9.83398ZM13.7666 4.83398H8.47285L6.7666 3.12773C6.67412 3.03455 6.56409 2.96061 6.44287 2.91019C6.32165 2.85977 6.19164 2.83387 6.06035 2.83398H2.7666C2.50139 2.83398 2.24703 2.93934 2.05949 3.12688C1.87196 3.31441 1.7666 3.56877 1.7666 3.83398V12.8715C1.7666 13.1267 1.86801 13.3716 2.04851 13.5521C2.22902 13.7326 2.47383 13.834 2.7291 13.834H7.3041C7.43671 13.834 7.56389 13.7813 7.65765 13.6875C7.75142 13.5938 7.8041 13.4666 7.8041 13.334C7.8041 13.2014 7.75142 13.0742 7.65765 12.9804C7.56389 12.8867 7.43671 12.834 7.3041 12.834H2.7666V5.83398H13.7666V6.83398C13.7666 6.96659 13.8193 7.09377 13.913 7.18754C14.0068 7.2813 14.134 7.33398 14.2666 7.33398C14.3992 7.33398 14.5264 7.2813 14.6202 7.18754C14.7139 7.09377 14.7666 6.96659 14.7666 6.83398V5.83398C14.7666 5.56877 14.6612 5.31441 14.4737 5.12688C14.2862 4.93934 14.0318 4.83398 13.7666 4.83398ZM6.06035 3.83398L7.06035 4.83398H2.7666V3.83398H6.06035Z" fill="#A2AAB8"/>
</svg>
